<?xml version="1.0" encoding="utf-8"?>
<!-- Generator: Adobe Illustrator 23.0.0, SVG Export Plug-In . SVG Version: 6.00 Cesium 0)  -->
<svg version="1.1" id="图层_1" xmlns="http://www.w3.org/2000/svg" xmlns:xlink="http://www.w3.org/1999/xlink" x="0px" y="0px"
	 viewBox="0 0 1180 25" style="enable-background:new 0 0 1180 25;" xml:space="preserve">
<style type="text/css">
	.st0{opacity:0.8;}
	.st1{opacity:0.4;fill:none;stroke:#E6F0FF;stroke-miterlimit:10;enable-background:new    ;}
	.st2{opacity:0.4;fill:none;stroke:#E6F0FF;stroke-miterlimit:10;stroke-dasharray:4;enable-background:new    ;}
	.st3{fill:none;stroke:#E6F0FF;stroke-miterlimit:10;}
	.st4{opacity:0.4;fill:none;stroke:#FFFFFF;stroke-miterlimit:10;enable-background:new    ;}
	.st5{opacity:0.4;fill:none;stroke:#FFFFFF;stroke-miterlimit:10;stroke-dasharray:4;enable-background:new    ;}
	.st6{fill:none;stroke:#FFFFFF;stroke-miterlimit:10;}
	.st7{opacity:0.3;fill:none;stroke:#FFFFFF;stroke-miterlimit:10;enable-background:new    ;}
	.st8{opacity:0.6;}
	.st9{opacity:0.6;fill:none;stroke:#87A2D8;stroke-miterlimit:10;enable-background:new    ;}
	.st10{fill:#87A2D8;}
	.st11{fill:none;stroke:#87A2D8;stroke-miterlimit:10;}
	.st12{fill:none;stroke:#87A2D8;stroke-miterlimit:10;stroke-dasharray:1.7751,1.7751;}
</style>
<g class="st0">
	<line class="st1" x1="62.2" y1="5.6" x2="433.8" y2="5.6"/>
	<line class="st2" x1="62.2" y1="20.3" x2="433.8" y2="20.3"/>
	<line class="st1" x1="62.2" y1="23.3" x2="433.8" y2="23.3"/>
	<line class="st3" x1="65.1" y1="1.6" x2="65.1" y2="4.2"/>
	<line class="st3" x1="76.2" y1="1.6" x2="76.2" y2="4.2"/>
	<line class="st3" x1="87.2" y1="1.6" x2="87.2" y2="4.2"/>
	<line class="st3" x1="98.2" y1="1.6" x2="98.2" y2="4.2"/>
	<line class="st3" x1="109.3" y1="1.6" x2="109.3" y2="4.2"/>
	<line class="st3" x1="120.3" y1="1.6" x2="120.3" y2="4.2"/>
	<line class="st3" x1="131.4" y1="1.6" x2="131.4" y2="4.2"/>
	<line class="st3" x1="142.4" y1="1.6" x2="142.4" y2="4.2"/>
	<line class="st3" x1="153.5" y1="1.6" x2="153.5" y2="4.2"/>
	<line class="st3" x1="164.5" y1="1.6" x2="164.5" y2="4.2"/>
	<line class="st3" x1="175.5" y1="1.6" x2="175.5" y2="4.2"/>
	<line class="st3" x1="186.6" y1="1.6" x2="186.6" y2="4.2"/>
	<line class="st3" x1="197.6" y1="1.6" x2="197.6" y2="4.2"/>
	<line class="st3" x1="208.7" y1="1.6" x2="208.7" y2="4.2"/>
	<line class="st3" x1="219.7" y1="1.6" x2="219.7" y2="4.2"/>
	<line class="st3" x1="230.8" y1="1.6" x2="230.8" y2="4.2"/>
	<line class="st3" x1="241.8" y1="1.6" x2="241.8" y2="4.2"/>
	<line class="st3" x1="252.8" y1="1.6" x2="252.8" y2="4.2"/>
	<line class="st3" x1="263.9" y1="1.6" x2="263.9" y2="4.2"/>
	<line class="st3" x1="274.9" y1="1.6" x2="274.9" y2="4.2"/>
	<line class="st3" x1="286" y1="1.6" x2="286" y2="4.2"/>
	<line class="st3" x1="297" y1="1.6" x2="297" y2="4.2"/>
	<line class="st3" x1="308.1" y1="1.6" x2="308.1" y2="4.2"/>
	<line class="st3" x1="319.1" y1="1.6" x2="319.1" y2="4.2"/>
	<line class="st3" x1="330.1" y1="1.6" x2="330.1" y2="4.2"/>
	<line class="st3" x1="341.2" y1="1.6" x2="341.2" y2="4.2"/>
	<line class="st3" x1="352.2" y1="1.6" x2="352.2" y2="4.2"/>
	<line class="st3" x1="363.3" y1="1.6" x2="363.3" y2="4.2"/>
	<line class="st3" x1="374.3" y1="1.6" x2="374.3" y2="4.2"/>
	<line class="st3" x1="385.4" y1="1.6" x2="385.4" y2="4.2"/>
	<line class="st3" x1="396.4" y1="1.6" x2="396.4" y2="4.2"/>
	<line class="st3" x1="407.4" y1="1.6" x2="407.4" y2="4.2"/>
	<line class="st3" x1="418.5" y1="1.6" x2="418.5" y2="4.2"/>
	<line class="st3" x1="429.5" y1="1.6" x2="429.5" y2="4.2"/>
	<rect x="105.7" y="8.7" class="st3" width="3.6" height="3.4"/>
	<rect x="149.9" y="8.7" class="st3" width="3.6" height="3.4"/>
	<rect x="194.1" y="8.7" class="st3" width="3.5" height="3.4"/>
	<rect x="238.2" y="8.7" class="st3" width="3.6" height="3.4"/>
	<rect x="282.4" y="8.7" class="st3" width="3.6" height="3.4"/>
	<rect x="326.6" y="8.7" class="st3" width="3.5" height="3.4"/>
	<rect x="370.7" y="8.7" class="st3" width="3.6" height="3.4"/>
	<rect x="414.9" y="8.7" class="st3" width="3.6" height="3.4"/>
</g>
<g class="st0">
	<line class="st4" x1="433.8" y1="5.6" x2="805.4" y2="5.6"/>
	<line class="st5" x1="433.8" y1="20.3" x2="805.4" y2="20.3"/>
	<line class="st4" x1="433.8" y1="23.3" x2="805.4" y2="23.3"/>
	<line class="st6" x1="436.7" y1="1.6" x2="436.7" y2="4.2"/>
	<line class="st6" x1="447.8" y1="1.6" x2="447.8" y2="4.2"/>
	<line class="st6" x1="458.8" y1="1.6" x2="458.8" y2="4.2"/>
	<line class="st6" x1="469.8" y1="1.6" x2="469.8" y2="4.2"/>
	<line class="st6" x1="480.9" y1="1.6" x2="480.9" y2="4.2"/>
	<line class="st6" x1="491.9" y1="1.6" x2="491.9" y2="4.2"/>
	<line class="st6" x1="503" y1="1.6" x2="503" y2="4.2"/>
	<line class="st6" x1="514" y1="1.6" x2="514" y2="4.2"/>
	<line class="st6" x1="525.1" y1="1.6" x2="525.1" y2="4.2"/>
	<line class="st6" x1="536.1" y1="1.6" x2="536.1" y2="4.2"/>
	<line class="st6" x1="547.1" y1="1.6" x2="547.1" y2="4.2"/>
	<line class="st6" x1="558.2" y1="1.6" x2="558.2" y2="4.2"/>
	<line class="st6" x1="569.2" y1="1.6" x2="569.2" y2="4.2"/>
	<line class="st6" x1="580.3" y1="1.6" x2="580.3" y2="4.2"/>
	<line class="st6" x1="591.3" y1="1.6" x2="591.3" y2="4.2"/>
	<line class="st6" x1="602.4" y1="1.6" x2="602.4" y2="4.2"/>
	<line class="st6" x1="613.4" y1="1.6" x2="613.4" y2="4.2"/>
	<line class="st6" x1="624.4" y1="1.6" x2="624.4" y2="4.2"/>
	<line class="st6" x1="635.5" y1="1.6" x2="635.5" y2="4.2"/>
	<line class="st6" x1="646.5" y1="1.6" x2="646.5" y2="4.2"/>
	<line class="st6" x1="657.6" y1="1.6" x2="657.6" y2="4.2"/>
	<line class="st6" x1="668.6" y1="1.6" x2="668.6" y2="4.2"/>
	<line class="st6" x1="679.7" y1="1.6" x2="679.7" y2="4.2"/>
	<line class="st6" x1="690.7" y1="1.6" x2="690.7" y2="4.2"/>
	<line class="st6" x1="701.7" y1="1.6" x2="701.7" y2="4.2"/>
	<line class="st6" x1="712.8" y1="1.6" x2="712.8" y2="4.2"/>
	<line class="st6" x1="723.8" y1="1.6" x2="723.8" y2="4.2"/>
	<line class="st6" x1="734.9" y1="1.6" x2="734.9" y2="4.2"/>
	<line class="st6" x1="745.9" y1="1.6" x2="745.9" y2="4.2"/>
	<line class="st6" x1="757" y1="1.6" x2="757" y2="4.2"/>
	<line class="st6" x1="768" y1="1.6" x2="768" y2="4.2"/>
	<line class="st6" x1="779" y1="1.6" x2="779" y2="4.2"/>
	<line class="st6" x1="790.1" y1="1.6" x2="790.1" y2="4.2"/>
	<line class="st6" x1="801.1" y1="1.6" x2="801.1" y2="4.2"/>
	<rect x="477.3" y="8.7" class="st6" width="3.6" height="3.4"/>
	<rect x="521.5" y="8.7" class="st6" width="3.6" height="3.4"/>
	<rect x="565.7" y="8.7" class="st6" width="3.5" height="3.4"/>
	<rect x="609.8" y="8.7" class="st6" width="3.6" height="3.4"/>
	<rect x="654" y="8.7" class="st6" width="3.6" height="3.4"/>
	<rect x="698.2" y="8.7" class="st6" width="3.5" height="3.4"/>
	<rect x="742.3" y="8.7" class="st6" width="3.6" height="3.4"/>
	<rect x="786.5" y="8.7" class="st6" width="3.6" height="3.4"/>
</g>
<g class="st0">
	<line class="st4" x1="805.4" y1="5.6" x2="1177" y2="5.6"/>
	<line class="st5" x1="805.4" y1="20.3" x2="1177" y2="20.3"/>
	<line class="st7" x1="805.4" y1="23.3" x2="1177" y2="23.3"/>
	<line class="st6" x1="808.3" y1="1.6" x2="808.3" y2="4.2"/>
	<line class="st6" x1="819.4" y1="1.6" x2="819.4" y2="4.2"/>
	<line class="st6" x1="830.4" y1="1.6" x2="830.4" y2="4.2"/>
	<line class="st6" x1="841.4" y1="1.6" x2="841.4" y2="4.2"/>
	<line class="st6" x1="852.5" y1="1.6" x2="852.5" y2="4.2"/>
	<line class="st6" x1="863.5" y1="1.6" x2="863.5" y2="4.2"/>
	<line class="st6" x1="874.6" y1="1.6" x2="874.6" y2="4.2"/>
	<line class="st6" x1="885.6" y1="1.6" x2="885.6" y2="4.2"/>
	<line class="st6" x1="896.7" y1="1.6" x2="896.7" y2="4.2"/>
	<line class="st6" x1="907.7" y1="1.6" x2="907.7" y2="4.2"/>
	<line class="st6" x1="918.7" y1="1.6" x2="918.7" y2="4.2"/>
	<line class="st6" x1="929.8" y1="1.6" x2="929.8" y2="4.2"/>
	<line class="st6" x1="940.8" y1="1.6" x2="940.8" y2="4.2"/>
	<line class="st6" x1="951.9" y1="1.6" x2="951.9" y2="4.2"/>
	<line class="st6" x1="962.9" y1="1.6" x2="962.9" y2="4.2"/>
	<line class="st6" x1="974" y1="1.6" x2="974" y2="4.2"/>
	<line class="st6" x1="985" y1="1.6" x2="985" y2="4.2"/>
	<line class="st6" x1="996" y1="1.6" x2="996" y2="4.2"/>
	<line class="st6" x1="1007.1" y1="1.6" x2="1007.1" y2="4.2"/>
	<line class="st6" x1="1018.1" y1="1.6" x2="1018.1" y2="4.2"/>
	<line class="st6" x1="1029.2" y1="1.6" x2="1029.2" y2="4.2"/>
	<line class="st6" x1="1040.2" y1="1.6" x2="1040.2" y2="4.2"/>
	<line class="st6" x1="1051.3" y1="1.6" x2="1051.3" y2="4.2"/>
	<line class="st6" x1="1062.3" y1="1.6" x2="1062.3" y2="4.2"/>
	<line class="st6" x1="1073.3" y1="1.6" x2="1073.3" y2="4.2"/>
	<line class="st6" x1="1084.4" y1="1.6" x2="1084.4" y2="4.2"/>
	<line class="st6" x1="1095.4" y1="1.6" x2="1095.4" y2="4.2"/>
	<line class="st6" x1="1106.5" y1="1.6" x2="1106.5" y2="4.2"/>
	<line class="st6" x1="1117.5" y1="1.6" x2="1117.5" y2="4.2"/>
	<line class="st6" x1="1128.6" y1="1.6" x2="1128.6" y2="4.2"/>
	<line class="st6" x1="1139.6" y1="1.6" x2="1139.6" y2="4.2"/>
	<line class="st6" x1="1150.6" y1="1.6" x2="1150.6" y2="4.2"/>
	<line class="st6" x1="1161.7" y1="1.6" x2="1161.7" y2="4.2"/>
	<line class="st6" x1="1172.7" y1="1.6" x2="1172.7" y2="4.2"/>
	<rect x="848.9" y="8.7" class="st6" width="3.6" height="3.4"/>
	<rect x="893.1" y="8.7" class="st6" width="3.6" height="3.4"/>
	<rect x="937.3" y="8.7" class="st6" width="3.5" height="3.4"/>
	<rect x="981.4" y="8.7" class="st6" width="3.6" height="3.4"/>
	<rect x="1025.6" y="8.7" class="st6" width="3.6" height="3.4"/>
	<rect x="1069.8" y="8.7" class="st6" width="3.5" height="3.4"/>
	<rect x="1113.9" y="8.7" class="st6" width="3.6" height="3.4"/>
	<rect x="1158.1" y="8.7" class="st6" width="3.6" height="3.4"/>
</g>
<g class="st8">
	<line class="st9" x1="2.2" y1="1.1" x2="7.1" y2="6.1"/>
	<circle class="st10" cx="2.2" cy="1.1" r="1"/>
	<circle class="st10" cx="7.1" cy="5.9" r="1"/>
	<line class="st9" x1="2.2" y1="10" x2="7.1" y2="14.9"/>
	<circle class="st10" cx="2.2" cy="10" r="1"/>
	<circle class="st10" cx="7.1" cy="14.8" r="1"/>
	<line class="st9" x1="2.2" y1="19.1" x2="7.1" y2="24"/>
	<circle class="st10" cx="2.2" cy="19.1" r="1"/>
	<circle class="st10" cx="7.1" cy="23.9" r="1"/>
	<g>
		<g>
			<polyline class="st11" points="55,5.1 26.3,5.1 25.3,5.1 			"/>
			<line class="st12" x1="23.5" y1="5.1" x2="13.8" y2="5.1"/>
			<line class="st11" x1="12.9" y1="5.1" x2="11.9" y2="5.1"/>
		</g>
	</g>
	<g>
		<g>
			<polyline class="st11" points="55,14 26.3,14 25.3,14 			"/>
			<line class="st12" x1="23.5" y1="14" x2="13.8" y2="14"/>
			<line class="st11" x1="12.9" y1="14" x2="11.9" y2="14"/>
		</g>
	</g>
	<g>
		<g>
			<polyline class="st11" points="55,22.8 26.3,22.8 25.3,22.8 			"/>
			<line class="st12" x1="23.5" y1="22.8" x2="13.8" y2="22.8"/>
			<line class="st11" x1="12.9" y1="22.8" x2="11.9" y2="22.8"/>
		</g>
	</g>
</g>
</svg>
