<svg id="图层_1" data-name="图层 1" xmlns="http://www.w3.org/2000/svg" viewBox="0 0 296.55 27.23"><defs><style>.cls-1{fill:#121628;opacity:0.6;}.cls-2,.cls-4,.cls-5{fill:none;stroke:#fff;stroke-miterlimit:10;}.cls-2,.cls-6{opacity:0.4;isolation:isolate;}.cls-3,.cls-6{fill:#fff;}.cls-5{stroke-width:2px;}</style></defs><title>未标题-3</title><rect class="cls-1" x="0.05" y="0.5" width="136.06" height="26.13"/><rect class="cls-1" x="137.81" y="0.5" width="132.3" height="26.13"/><rect class="cls-2" x="0.5" y="0.5" width="295.55" height="26.13"/><path class="cls-3" d="M14.35,5.73A8.36,8.36,0,0,1,22.86,14a8.37,8.37,0,0,1-8.51,8.23A8.37,8.37,0,0,1,5.83,14a8.36,8.36,0,0,1,8.52-8.22m0-1.94A10.35,10.35,0,0,0,3.83,14,10.35,10.35,0,0,0,14.35,24.11,10.34,10.34,0,0,0,24.86,14,10.34,10.34,0,0,0,14.35,3.79Z" transform="translate(-0.73 -0.39)"/><line class="cls-4" x1="26.84" y1="0.11" x2="26.84" y2="2.15"/><line class="cls-4" x1="26.84" y1="25.08" x2="26.84" y2="27.11"/><line class="cls-4" x1="137.01" y1="0.11" x2="137.01" y2="2.15"/><line class="cls-4" x1="137.01" y1="25.08" x2="137.01" y2="27.11"/><polyline class="cls-4" points="3.4 0.5 0.5 0.5 0.5 3.11"/><polyline class="cls-4" points="3.4 26.73 0.5 26.73 0.5 24.21"/><polyline class="cls-4" points="293.05 0.5 295.95 0.5 295.95 3.11"/><polyline class="cls-4" points="293.05 26.63 295.95 26.63 295.95 24.11"/><line class="cls-5" x1="7.51" y1="13.95" x2="20.13" y2="13.95"/><line class="cls-5" x1="13.82" y1="7.85" x2="13.82" y2="19.95"/><polyline class="cls-4" points="293.14 18.4 293.14 23.24 272.91 23.24 272.91 18.4"/><polyline class="cls-4" points="272.91 8.44 272.91 3.6 293.14 3.6 293.14 8.44"/><rect class="cls-6" x="277.62" y="8.05" width="10.72" height="10.35"/><rect class="cls-3" x="280.83" y="11.15" width="4.31" height="4.16"/></svg>