<svg id="图层_1" data-name="图层 1" xmlns="http://www.w3.org/2000/svg" xmlns:xlink="http://www.w3.org/1999/xlink" viewBox="0 0 326 320"><defs><style>.cls-1{fill:#0a0e17;}.cls-2{fill:url(#未命名的渐变_127);}.cls-3{fill:url(#未命名的渐变_127-2);}.cls-4{fill:#111924;}.cls-5,.cls-7{fill:#4d4c5c;}.cls-11,.cls-5,.cls-6{opacity:0.4;}.cls-11,.cls-5{isolation:isolate;}.cls-8{opacity:0.7;}.cls-9{fill:#3b424c;}.cls-10{fill:#333a44;}.cls-11{fill:url(#未命名的渐变_10);}</style><linearGradient id="未命名的渐变_127" x1="0.5" y1="313.3" x2="325.1" y2="313.3" gradientUnits="userSpaceOnUse"><stop offset="0" stop-color="#26293e"/><stop offset="0.49" stop-color="#26293e"/><stop offset="1" stop-color="#26293e"/></linearGradient><linearGradient id="未命名的渐变_127-2" y1="9.8" x2="325" y2="9.8" xlink:href="#未命名的渐变_127"/><linearGradient id="未命名的渐变_10" x1="28.86" y1="161.75" x2="0.46" y2="161.75" gradientTransform="matrix(1, 0, 0, -1, 0, 322)" gradientUnits="userSpaceOnUse"><stop offset="0" stop-color="#3649e9" stop-opacity="0.4"/><stop offset="0.2" stop-color="#354de8" stop-opacity="0.38"/><stop offset="0.41" stop-color="#325ae5" stop-opacity="0.33"/><stop offset="0.63" stop-color="#2d70e0" stop-opacity="0.24"/><stop offset="0.84" stop-color="#268eda" stop-opacity="0.11"/><stop offset="1" stop-color="#20a9d4" stop-opacity="0"/></linearGradient></defs><title>未标题-12</title><polygon class="cls-1" points="298 320 0.5 320 0.5 19 28.9 0.6 325.3 0.6 325.3 306.42 298 320"/><polygon class="cls-2" points="325.1 306.5 298 320.1 0.5 320 26.8 306.5 325.1 306.5"/><polygon class="cls-3" points="325 0.6 288.5 19 0.5 19 28.9 0.6 325 0.6"/><rect class="cls-4" x="48" y="18.7" width="1" height="288.1"/><rect class="cls-5" x="48" y="0.6" width="1" height="18.4"/><rect class="cls-5" x="48" y="307.4" width="1" height="12.7"/><polygon class="cls-4" points="27.2 306.5 27.8 306.5 28.2 306.5 28.2 18.7 27.2 18.7 27.2 306.5"/><rect class="cls-5" x="27.2" y="0.6" width="1" height="18.4"/><polygon class="cls-5" points="27.2 306.5 27.2 320.2 28.2 320.2 28.2 315.1 28.2 306.5 27.2 306.5"/><polygon class="cls-4" points="6.5 316.7 7.5 316.3 7.5 18.7 6.5 18.7 6.5 316.7"/><polyline class="cls-5" points="6.5 15.3 6.5 19 7.5 19"/><rect class="cls-5" x="6.5" y="318.9" width="1" height="1.2"/><polygon class="cls-5" points="6.5 318.9 7.5 318.9 7.5 316.3 6.5 316.7 6.5 318.9"/><polygon class="cls-4" points="297 14.8 297 306.5 298 306.5 298 14.3 297 14.8"/><polygon class="cls-5" points="298 0.6 297 0.6 297 14.8 298 14.3 298 0.6"/><rect class="cls-5" x="297" y="306.5" width="1" height="13.6"/><polygon class="cls-5" points="317.75 310.2 318.75 309.7 318.75 306.5 317.75 306.5 317.75 310.2"/><rect class="cls-4" x="276.2" y="18.7" width="1" height="287.6"/><rect class="cls-5" x="276.2" y="0.6" width="1" height="18.4"/><rect class="cls-5" x="276.2" y="306.5" width="1" height="13.6"/><rect class="cls-4" x="255.5" y="18.7" width="1" height="287.6"/><rect class="cls-5" x="255.5" y="0.6" width="1" height="18.4"/><rect class="cls-5" x="255.5" y="306.5" width="1" height="13.6"/><rect class="cls-4" x="234.7" y="18.7" width="1" height="287.6"/><rect class="cls-5" x="234.7" y="0.6" width="1" height="18.4"/><rect class="cls-5" x="234.7" y="306.5" width="1" height="13.6"/><rect class="cls-4" x="214" y="18.7" width="1" height="287.6"/><rect class="cls-5" x="214" y="0.6" width="1" height="18.4"/><rect class="cls-5" x="214" y="306.5" width="1" height="13.6"/><rect class="cls-4" x="193.2" y="18.7" width="1" height="287.6"/><rect class="cls-5" x="193.2" y="0.6" width="1" height="18.4"/><rect class="cls-5" x="193.2" y="306.5" width="1" height="13.6"/><rect class="cls-4" x="172.5" y="18.7" width="1" height="287.6"/><rect class="cls-5" x="172.5" y="0.6" width="1" height="18.4"/><rect class="cls-5" x="172.5" y="306.5" width="1" height="13.6"/><rect class="cls-4" x="151.7" y="18.7" width="1" height="287.6"/><rect class="cls-5" x="151.7" y="0.6" width="1" height="18.4"/><rect class="cls-5" x="151.7" y="306.5" width="1" height="13.6"/><rect class="cls-4" x="131" y="18.7" width="1" height="287.6"/><rect class="cls-5" x="131" y="0.6" width="1" height="18.4"/><rect class="cls-5" x="131" y="306.5" width="1" height="13.6"/><rect class="cls-4" x="110.2" y="18.7" width="1" height="287.6"/><rect class="cls-5" x="110.2" y="0.6" width="1" height="18.4"/><rect class="cls-5" x="110.2" y="306.5" width="1" height="13.6"/><rect class="cls-4" x="89.5" y="18.7" width="1" height="287.6"/><rect class="cls-5" x="89.5" y="0.6" width="1" height="18.4"/><rect class="cls-5" x="89.5" y="306.5" width="1" height="13.6"/><rect class="cls-4" x="68.7" y="18.7" width="1" height="287.6"/><rect class="cls-5" x="68.7" y="0.6" width="1" height="18.4"/><rect class="cls-5" x="68.7" y="306.5" width="1" height="13.6"/><polygon class="cls-4" points="317.8 4.1 317.8 306.5 318.8 306.5 318.8 3.6 317.8 4.1"/><polygon class="cls-5" points="318.8 0.6 317.8 0.6 317.8 4.1 318.8 3.6 318.8 0.6"/><g class="cls-6"><rect class="cls-4" x="0.2" y="120.3" width="324.8" height="1"/><rect class="cls-4" x="0.2" y="99.9" width="324.8" height="1"/><rect class="cls-4" x="0.2" y="79.2" width="324.8" height="1"/><rect class="cls-4" x="0.2" y="58.5" width="324.8" height="1"/><rect class="cls-4" x="0.2" y="37.8" width="324.8" height="1"/><polygon class="cls-4" points="0.2 307 324 307 322 308 0.2 308 0.2 307"/><rect class="cls-4" x="0.2" y="286.3" width="324.8" height="1"/><rect class="cls-4" x="0.2" y="265.5" width="324.8" height="1"/><rect class="cls-4" x="0.2" y="244.8" width="324.8" height="1"/><rect class="cls-4" x="0.2" y="224" width="324.8" height="1"/><rect class="cls-4" x="0.2" y="203.3" width="324.8" height="1"/><rect class="cls-4" x="0.2" y="182.5" width="324.8" height="1"/><rect class="cls-4" x="0.2" y="161.8" width="324.8" height="1"/><rect class="cls-4" x="0.2" y="141" width="324.8" height="1"/><polygon class="cls-7" points="4.3 16.5 2.8 17.5 291.5 17.5 293.5 16.5 4.3 16.5"/><polygon class="cls-4" points="325 16.5 293.5 16.5 291.5 17.5 325 17.5 325 16.5"/></g><g class="cls-8"><polygon class="cls-9" points="7.5 14.5 6.5 15.1 6.5 16.5 4.3 16.5 2.8 17.5 6.5 17.5 6.5 22 7.5 22 7.5 17.5 12 17.5 12 16.5 7.5 16.5 7.5 14.5"/><rect class="cls-9" x="26.8" y="16" width="2" height="2"/><rect class="cls-9" x="47.5" y="16" width="2" height="2"/><rect class="cls-9" x="68.3" y="16" width="2" height="2"/><rect class="cls-10" x="26.8" y="36.8" width="2" height="2"/><rect class="cls-10" x="6" y="36.8" width="2" height="2"/><rect class="cls-10" x="47.5" y="36.8" width="2" height="2"/><rect class="cls-10" x="68.3" y="36.8" width="2" height="2"/><rect class="cls-10" x="26.8" y="57.5" width="2" height="2"/><rect class="cls-10" x="6" y="57.5" width="2" height="2"/><rect class="cls-10" x="47.5" y="57.5" width="2" height="2"/><rect class="cls-10" x="68.3" y="57.5" width="2" height="2"/><rect class="cls-10" x="26.8" y="78.3" width="2" height="2"/><rect class="cls-10" x="6" y="78.3" width="2" height="2"/><rect class="cls-10" x="47.5" y="78.3" width="2" height="2"/><rect class="cls-10" x="68.3" y="78.3" width="2" height="2"/><polygon class="cls-10" points="7.5 95 6.5 95 6.5 99.5 2 99.5 2 100.5 6.5 100.5 6.5 105 7.5 105 7.5 100.5 12 100.5 12 99.5 7.5 99.5 7.5 95"/><rect class="cls-10" x="26.8" y="99" width="2" height="2"/><rect class="cls-10" x="47.5" y="99" width="2" height="2"/><rect class="cls-10" x="68.3" y="99" width="2" height="2"/><rect class="cls-10" x="26.8" y="119.8" width="2" height="2"/><rect class="cls-10" x="6" y="119.8" width="2" height="2"/><rect class="cls-10" x="47.5" y="119.8" width="2" height="2"/><rect class="cls-10" x="68.3" y="119.8" width="2" height="2"/><rect class="cls-10" x="26.8" y="140.5" width="2" height="2"/><rect class="cls-10" x="6" y="140.5" width="2" height="2"/><rect class="cls-10" x="47.5" y="140.5" width="2" height="2"/><rect class="cls-10" x="68.3" y="140.5" width="2" height="2"/><rect class="cls-10" x="26.8" y="161.3" width="2" height="2"/><rect class="cls-10" x="6" y="161.3" width="2" height="2"/><rect class="cls-10" x="47.5" y="161.3" width="2" height="2"/><rect class="cls-10" x="68.3" y="161.3" width="2" height="2"/><polygon class="cls-10" points="7.5 178 6.5 178 6.5 182.5 2 182.5 2 183.5 6.5 183.5 6.5 188 7.5 188 7.5 183.5 12 183.5 12 182.5 7.5 182.5 7.5 178"/><rect class="cls-10" x="26.8" y="182" width="2" height="2"/><rect class="cls-10" x="47.5" y="182" width="2" height="2"/><rect class="cls-10" x="68.3" y="182" width="2" height="2"/><rect class="cls-10" x="26.8" y="202.8" width="2" height="2"/><rect class="cls-10" x="6" y="202.8" width="2" height="2"/><rect class="cls-10" x="47.5" y="202.8" width="2" height="2"/><rect class="cls-10" x="68.3" y="202.8" width="2" height="2"/><rect class="cls-10" x="26.8" y="223.5" width="2" height="2"/><rect class="cls-10" x="6" y="223.5" width="2" height="2"/><rect class="cls-10" x="47.5" y="223.5" width="2" height="2"/><rect class="cls-10" x="68.3" y="223.5" width="2" height="2"/><rect class="cls-10" x="26.8" y="244.3" width="2" height="2"/><rect class="cls-10" x="6" y="244.3" width="2" height="2"/><rect class="cls-10" x="47.5" y="244.3" width="2" height="2"/><rect class="cls-10" x="68.3" y="244.3" width="2" height="2"/><polygon class="cls-10" points="7.5 261 6.5 261 6.5 265.5 2 265.5 2 266.5 6.5 266.5 6.5 271 7.5 271 7.5 266.5 12 266.5 12 265.5 7.5 265.5 7.5 261"/><rect class="cls-10" x="26.8" y="265" width="2" height="2"/><rect class="cls-10" x="47.5" y="265" width="2" height="2"/><rect class="cls-10" x="68.3" y="265" width="2" height="2"/><rect class="cls-10" x="26.8" y="285.8" width="2" height="2"/><rect class="cls-10" x="6" y="285.8" width="2" height="2"/><rect class="cls-10" x="47.5" y="285.8" width="2" height="2"/><rect class="cls-10" x="68.3" y="285.8" width="2" height="2"/><rect class="cls-10" x="26.8" y="306.5" width="2" height="2"/><rect class="cls-10" x="6" y="306.5" width="2" height="2"/><rect class="cls-10" x="47.5" y="306.5" width="2" height="2"/><rect class="cls-10" x="68.3" y="306.5" width="2" height="2"/><polygon class="cls-9" points="90.5 12 89.5 12 89.5 16.5 85 16.5 85 17.5 89.5 17.5 89.5 22 90.5 22 90.5 17.5 95 17.5 95 16.5 90.5 16.5 90.5 12"/><rect class="cls-9" x="109.8" y="16" width="2" height="2"/><rect class="cls-9" x="130.5" y="16" width="2" height="2"/><rect class="cls-9" x="151.3" y="16" width="2" height="2"/><rect class="cls-10" x="109.8" y="36.8" width="2" height="2"/><rect class="cls-10" x="89" y="36.8" width="2" height="2"/><rect class="cls-10" x="130.5" y="36.8" width="2" height="2"/><rect class="cls-10" x="151.3" y="36.8" width="2" height="2"/><rect class="cls-10" x="109.8" y="57.5" width="2" height="2"/><rect class="cls-10" x="89" y="57.5" width="2" height="2"/><rect class="cls-10" x="130.5" y="57.5" width="2" height="2"/><rect class="cls-10" x="151.3" y="57.5" width="2" height="2"/><rect class="cls-10" x="109.8" y="78.3" width="2" height="2"/><rect class="cls-10" x="89" y="78.3" width="2" height="2"/><rect class="cls-10" x="130.5" y="78.3" width="2" height="2"/><rect class="cls-10" x="151.3" y="78.3" width="2" height="2"/><polygon class="cls-10" points="90.5 95 89.5 95 89.5 99.5 85 99.5 85 100.5 89.5 100.5 89.5 105 90.5 105 90.5 100.5 95 100.5 95 99.5 90.5 99.5 90.5 95"/><rect class="cls-10" x="109.8" y="99" width="2" height="2"/><rect class="cls-10" x="130.5" y="99" width="2" height="2"/><rect class="cls-10" x="151.3" y="99" width="2" height="2"/><rect class="cls-10" x="109.8" y="119.8" width="2" height="2"/><rect class="cls-10" x="89" y="119.8" width="2" height="2"/><rect class="cls-10" x="130.5" y="119.8" width="2" height="2"/><rect class="cls-10" x="151.3" y="119.8" width="2" height="2"/><rect class="cls-10" x="109.8" y="140.5" width="2" height="2"/><rect class="cls-10" x="89" y="140.5" width="2" height="2"/><rect class="cls-10" x="130.5" y="140.5" width="2" height="2"/><rect class="cls-10" x="151.3" y="140.5" width="2" height="2"/><rect class="cls-10" x="109.8" y="161.3" width="2" height="2"/><rect class="cls-10" x="89" y="161.3" width="2" height="2"/><rect class="cls-10" x="130.5" y="161.3" width="2" height="2"/><rect class="cls-10" x="151.3" y="161.3" width="2" height="2"/><polygon class="cls-10" points="90.5 178 89.5 178 89.5 182.5 85 182.5 85 183.5 89.5 183.5 89.5 188 90.5 188 90.5 183.5 95 183.5 95 182.5 90.5 182.5 90.5 178"/><rect class="cls-10" x="109.8" y="182" width="2" height="2"/><rect class="cls-10" x="130.5" y="182" width="2" height="2"/><rect class="cls-10" x="151.3" y="182" width="2" height="2"/><rect class="cls-10" x="109.8" y="202.8" width="2" height="2"/><rect class="cls-10" x="89" y="202.8" width="2" height="2"/><rect class="cls-10" x="130.5" y="202.8" width="2" height="2"/><rect class="cls-10" x="151.3" y="202.8" width="2" height="2"/><rect class="cls-10" x="109.8" y="223.5" width="2" height="2"/><rect class="cls-10" x="89" y="223.5" width="2" height="2"/><rect class="cls-10" x="130.5" y="223.5" width="2" height="2"/><rect class="cls-10" x="151.3" y="223.5" width="2" height="2"/><rect class="cls-10" x="109.8" y="244.3" width="2" height="2"/><rect class="cls-10" x="89" y="244.3" width="2" height="2"/><rect class="cls-10" x="130.5" y="244.3" width="2" height="2"/><rect class="cls-10" x="151.3" y="244.3" width="2" height="2"/><polygon class="cls-10" points="90.5 261 89.5 261 89.5 265.5 85 265.5 85 266.5 89.5 266.5 89.5 271 90.5 271 90.5 266.5 95 266.5 95 265.5 90.5 265.5 90.5 261"/><rect class="cls-10" x="109.8" y="265" width="2" height="2"/><rect class="cls-10" x="130.5" y="265" width="2" height="2"/><rect class="cls-10" x="151.3" y="265" width="2" height="2"/><rect class="cls-10" x="109.8" y="285.8" width="2" height="2"/><rect class="cls-10" x="89" y="285.8" width="2" height="2"/><rect class="cls-10" x="130.5" y="285.8" width="2" height="2"/><rect class="cls-10" x="151.3" y="285.8" width="2" height="2"/><rect class="cls-10" x="109.8" y="306.5" width="2" height="2"/><rect class="cls-10" x="89" y="306.5" width="2" height="2"/><rect class="cls-10" x="130.5" y="306.5" width="2" height="2"/><rect class="cls-10" x="151.3" y="306.5" width="2" height="2"/><polygon class="cls-9" points="173.5 12 172.5 12 172.5 16.5 168 16.5 168 17.5 172.5 17.5 172.5 22 173.5 22 173.5 17.5 178 17.5 178 16.5 173.5 16.5 173.5 12"/><rect class="cls-9" x="192.8" y="16" width="2" height="2"/><rect class="cls-9" x="213.5" y="16" width="2" height="2"/><rect class="cls-9" x="234.3" y="16" width="2" height="2"/><rect class="cls-10" x="192.8" y="36.8" width="2" height="2"/><rect class="cls-10" x="172" y="36.8" width="2" height="2"/><rect class="cls-10" x="213.5" y="36.8" width="2" height="2"/><rect class="cls-10" x="234.3" y="36.8" width="2" height="2"/><rect class="cls-10" x="192.8" y="57.5" width="2" height="2"/><rect class="cls-10" x="172" y="57.5" width="2" height="2"/><rect class="cls-10" x="213.5" y="57.5" width="2" height="2"/><rect class="cls-10" x="234.3" y="57.5" width="2" height="2"/><rect class="cls-10" x="192.8" y="78.3" width="2" height="2"/><rect class="cls-10" x="172" y="78.3" width="2" height="2"/><rect class="cls-10" x="213.5" y="78.3" width="2" height="2"/><rect class="cls-10" x="234.3" y="78.3" width="2" height="2"/><polygon class="cls-10" points="173.5 95 172.5 95 172.5 99.5 168 99.5 168 100.5 172.5 100.5 172.5 105 173.5 105 173.5 100.5 178 100.5 178 99.5 173.5 99.5 173.5 95"/><rect class="cls-10" x="192.8" y="99" width="2" height="2"/><rect class="cls-10" x="213.5" y="99" width="2" height="2"/><rect class="cls-10" x="234.3" y="99" width="2" height="2"/><rect class="cls-10" x="192.8" y="119.8" width="2" height="2"/><rect class="cls-10" x="172" y="119.8" width="2" height="2"/><rect class="cls-10" x="213.5" y="119.8" width="2" height="2"/><rect class="cls-10" x="234.3" y="119.8" width="2" height="2"/><rect class="cls-10" x="192.8" y="140.5" width="2" height="2"/><rect class="cls-10" x="172" y="140.5" width="2" height="2"/><rect class="cls-10" x="213.5" y="140.5" width="2" height="2"/><rect class="cls-10" x="234.3" y="140.5" width="2" height="2"/><rect class="cls-10" x="192.8" y="161.3" width="2" height="2"/><rect class="cls-10" x="172" y="161.3" width="2" height="2"/><rect class="cls-10" x="213.5" y="161.3" width="2" height="2"/><rect class="cls-10" x="234.3" y="161.3" width="2" height="2"/><polygon class="cls-10" points="173.5 178 172.5 178 172.5 182.5 168 182.5 168 183.5 172.5 183.5 172.5 188 173.5 188 173.5 183.5 178 183.5 178 182.5 173.5 182.5 173.5 178"/><rect class="cls-10" x="192.8" y="182" width="2" height="2"/><rect class="cls-10" x="213.5" y="182" width="2" height="2"/><rect class="cls-10" x="234.3" y="182" width="2" height="2"/><rect class="cls-10" x="192.8" y="202.8" width="2" height="2"/><rect class="cls-10" x="172" y="202.8" width="2" height="2"/><rect class="cls-10" x="213.5" y="202.8" width="2" height="2"/><rect class="cls-10" x="234.3" y="202.8" width="2" height="2"/><rect class="cls-10" x="192.8" y="223.5" width="2" height="2"/><rect class="cls-10" x="172" y="223.5" width="2" height="2"/><rect class="cls-10" x="213.5" y="223.5" width="2" height="2"/><rect class="cls-10" x="234.3" y="223.5" width="2" height="2"/><rect class="cls-10" x="192.8" y="244.3" width="2" height="2"/><rect class="cls-10" x="172" y="244.3" width="2" height="2"/><rect class="cls-10" x="213.5" y="244.3" width="2" height="2"/><rect class="cls-10" x="234.3" y="244.3" width="2" height="2"/><polygon class="cls-10" points="173.5 261 172.5 261 172.5 265.5 168 265.5 168 266.5 172.5 266.5 172.5 271 173.5 271 173.5 266.5 178 266.5 178 265.5 173.5 265.5 173.5 261"/><rect class="cls-10" x="192.8" y="265" width="2" height="2"/><rect class="cls-10" x="213.5" y="265" width="2" height="2"/><rect class="cls-10" x="234.3" y="265" width="2" height="2"/><rect class="cls-10" x="192.8" y="285.8" width="2" height="2"/><rect class="cls-10" x="172" y="285.8" width="2" height="2"/><rect class="cls-10" x="213.5" y="285.8" width="2" height="2"/><rect class="cls-10" x="234.3" y="285.8" width="2" height="2"/><rect class="cls-10" x="192.8" y="306.5" width="2" height="2"/><rect class="cls-10" x="172" y="306.5" width="2" height="2"/><rect class="cls-10" x="213.5" y="306.5" width="2" height="2"/><rect class="cls-10" x="234.3" y="306.5" width="2" height="2"/><polygon class="cls-9" points="256.5 12 255.5 12 255.5 16.5 251 16.5 251 17.5 255.5 17.5 255.5 22 256.5 22 256.5 17.5 261 17.5 261 16.5 256.5 16.5 256.5 12"/><rect class="cls-9" x="275.8" y="16" width="2" height="2"/><rect class="cls-9" x="296.5" y="16" width="2" height="2"/><rect class="cls-10" x="317.3" y="16" width="2" height="2"/><rect class="cls-10" x="275.8" y="36.8" width="2" height="2"/><rect class="cls-10" x="255" y="36.8" width="2" height="2"/><rect class="cls-10" x="296.5" y="36.8" width="2" height="2"/><rect class="cls-10" x="317.3" y="36.8" width="2" height="2"/><rect class="cls-10" x="275.8" y="57.5" width="2" height="2"/><rect class="cls-10" x="255" y="57.5" width="2" height="2"/><rect class="cls-10" x="296.5" y="57.5" width="2" height="2"/><rect class="cls-10" x="317.3" y="57.5" width="2" height="2"/><rect class="cls-10" x="275.8" y="78.3" width="2" height="2"/><rect class="cls-10" x="255" y="78.3" width="2" height="2"/><rect class="cls-10" x="296.5" y="78.3" width="2" height="2"/><rect class="cls-10" x="317.3" y="78.3" width="2" height="2"/><polygon class="cls-10" points="256.5 95 255.5 95 255.5 99.5 251 99.5 251 100.5 255.5 100.5 255.5 105 256.5 105 256.5 100.5 261 100.5 261 99.5 256.5 99.5 256.5 95"/><rect class="cls-10" x="275.8" y="99" width="2" height="2"/><rect class="cls-10" x="296.5" y="99" width="2" height="2"/><rect class="cls-10" x="317.3" y="99" width="2" height="2"/><rect class="cls-10" x="275.8" y="119.8" width="2" height="2"/><rect class="cls-10" x="255" y="119.8" width="2" height="2"/><rect class="cls-10" x="296.5" y="119.8" width="2" height="2"/><rect class="cls-10" x="317.3" y="119.8" width="2" height="2"/><rect class="cls-10" x="275.8" y="140.5" width="2" height="2"/><rect class="cls-10" x="255" y="140.5" width="2" height="2"/><rect class="cls-10" x="296.5" y="140.5" width="2" height="2"/><rect class="cls-10" x="317.3" y="140.5" width="2" height="2"/><rect class="cls-10" x="275.8" y="161.3" width="2" height="2"/><rect class="cls-10" x="255" y="161.3" width="2" height="2"/><rect class="cls-10" x="296.5" y="161.3" width="2" height="2"/><rect class="cls-10" x="317.3" y="161.3" width="2" height="2"/><polygon class="cls-10" points="256.5 178 255.5 178 255.5 182.5 251 182.5 251 183.5 255.5 183.5 255.5 188 256.5 188 256.5 183.5 261 183.5 261 182.5 256.5 182.5 256.5 178"/><rect class="cls-10" x="275.8" y="182" width="2" height="2"/><rect class="cls-10" x="296.5" y="182" width="2" height="2"/><rect class="cls-10" x="317.3" y="182" width="2" height="2"/><rect class="cls-10" x="275.8" y="202.8" width="2" height="2"/><rect class="cls-10" x="255" y="202.8" width="2" height="2"/><rect class="cls-10" x="296.5" y="202.8" width="2" height="2"/><rect class="cls-10" x="317.3" y="202.8" width="2" height="2"/><rect class="cls-10" x="275.8" y="223.5" width="2" height="2"/><rect class="cls-10" x="255" y="223.5" width="2" height="2"/><rect class="cls-10" x="296.5" y="223.5" width="2" height="2"/><rect class="cls-10" x="317.3" y="223.5" width="2" height="2"/><rect class="cls-10" x="275.8" y="244.3" width="2" height="2"/><rect class="cls-10" x="255" y="244.3" width="2" height="2"/><rect class="cls-10" x="296.5" y="244.3" width="2" height="2"/><rect class="cls-10" x="317.3" y="244.3" width="2" height="2"/><polygon class="cls-10" points="256.5 261 255.5 261 255.5 265.5 251 265.5 251 266.5 255.5 266.5 255.5 271 256.5 271 256.5 266.5 261 266.5 261 265.5 256.5 265.5 256.5 261"/><rect class="cls-10" x="275.8" y="265" width="2" height="2"/><rect class="cls-10" x="296.5" y="265" width="2" height="2"/><rect class="cls-10" x="317.3" y="265" width="2" height="2"/><rect class="cls-10" x="275.8" y="285.8" width="2" height="2"/><rect class="cls-10" x="255" y="285.8" width="2" height="2"/><rect class="cls-10" x="296.5" y="285.8" width="2" height="2"/><rect class="cls-10" x="317.3" y="285.8" width="2" height="2"/><rect class="cls-10" x="275.8" y="306.5" width="2" height="2"/><rect class="cls-10" x="255" y="306.5" width="2" height="2"/><rect class="cls-10" x="296.5" y="306.5" width="2" height="2"/><rect class="cls-10" x="317.3" y="306.5" width="2" height="2"/></g><polygon class="cls-11" points="28.9 0.6 26.8 306.5 0.6 319.9 0.5 19 28.9 0.6"/></svg>