<svg id="图层_1" data-name="图层 1" xmlns="http://www.w3.org/2000/svg" xmlns:xlink="http://www.w3.org/1999/xlink" viewBox="0 0 326 602"><defs><style>.cls-1{fill:#0a0e17;}.cls-2{fill:url(#未命名的渐变_127);}.cls-3{fill:#111924;}.cls-4{fill:#4d4c5c;}.cls-4,.cls-5,.cls-9{opacity:0.4;}.cls-4,.cls-9{isolation:isolate;}.cls-6{opacity:0.7;}.cls-7{fill:#333a44;}.cls-8{fill:#3b424c;}.cls-9{fill:url(#未命名的渐变_10);}</style><linearGradient id="未命名的渐变_127" x1="341" y1="-475.5" x2="667" y2="-475.5" gradientTransform="matrix(-1, 0, 0, 1, 667, 1068)" gradientUnits="userSpaceOnUse"><stop offset="0" stop-color="#26293e"/><stop offset="0.49" stop-color="#26293e"/><stop offset="1" stop-color="#26293e"/></linearGradient><linearGradient id="未命名的渐变_10" x1="37.6" y1="301.07" x2="1.6" y2="301.07" gradientUnits="userSpaceOnUse"><stop offset="0" stop-color="#3649e9" stop-opacity="0.4"/><stop offset="0.2" stop-color="#354de8" stop-opacity="0.38"/><stop offset="0.41" stop-color="#325ae5" stop-opacity="0.33"/><stop offset="0.63" stop-color="#2d70e0" stop-opacity="0.24"/><stop offset="0.84" stop-color="#268eda" stop-opacity="0.11"/><stop offset="1" stop-color="#20a9d4" stop-opacity="0"/></linearGradient></defs><title>未标题-13</title><polygon class="cls-1" points="325 602 35 602 0 583 0 17.13 37.89 0 325 0 325 602"/><polygon class="cls-2" points="0 583 35 602 326 602 291.6 583 0 583"/><rect class="cls-3" x="48" width="1" height="583.01"/><rect class="cls-4" x="48" y="583" width="1" height="19"/><polygon class="cls-3" points="27.2 4.83 28.2 4.38 28.2 583.01 27.2 583.01 27.2 4.83"/><polygon class="cls-4" points="27.2 583 27.2 597.8 28.2 598.3 28.2 583 27.2 583"/><polygon class="cls-3" points="6.5 14.18 7.5 13.72 7.5 583.01 6.5 583.01 6.5 14.18"/><polygon class="cls-4" points="6.5 583 6.5 586.5 7.5 587.1 7.5 583 6.5 583"/><polygon class="cls-3" points="318.7 0.3 317.7 0.3 317.7 597.4 318.7 598 318.7 0.3"/><polygon class="cls-4" points="317.7 597.4 317.7 602 318.7 602 318.7 598 317.7 597.4"/><polygon class="cls-3" points="298 0 297 0 297 586.01 298 586.52 298 0"/><polygon class="cls-4" points="297 586 297 602 298 602 298 586.5 297 586"/><rect class="cls-3" x="276.2" width="1" height="583.01"/><rect class="cls-4" x="276.2" y="583" width="1" height="19"/><rect class="cls-3" x="255.5" width="1" height="583.01"/><rect class="cls-4" x="255.5" y="583" width="1" height="19"/><rect class="cls-3" x="234.7" width="1" height="583.01"/><rect class="cls-4" x="234.7" y="583" width="1" height="19"/><rect class="cls-3" x="214" width="1" height="583.01"/><rect class="cls-4" x="214" y="583" width="1" height="19"/><rect class="cls-3" x="193.2" width="1" height="583.01"/><rect class="cls-4" x="193.2" y="583" width="1" height="19"/><rect class="cls-3" x="172.5" width="1" height="583.01"/><rect class="cls-4" x="172.5" y="583" width="1" height="19"/><rect class="cls-3" x="151.7" width="1" height="583.01"/><rect class="cls-4" x="151.7" y="583" width="1" height="19"/><rect class="cls-3" x="131" width="1" height="583.01"/><rect class="cls-4" x="131" y="583" width="1" height="19"/><rect class="cls-3" x="110.2" width="1" height="583.01"/><rect class="cls-4" x="110.2" y="583" width="1" height="19"/><rect class="cls-3" x="89.5" width="1" height="583.01"/><rect class="cls-4" x="89.5" y="583" width="1" height="19"/><rect class="cls-3" x="68.7" width="1" height="583.01"/><rect class="cls-4" x="68.7" y="583" width="1" height="19"/><g class="cls-5"><rect class="cls-3" x="0.2" y="112.3" width="324.8" height="1"/><rect class="cls-3" x="0.2" y="91.9" width="324.8" height="1"/><rect class="cls-3" x="0.2" y="71.2" width="324.8" height="1"/><rect class="cls-3" x="0.2" y="50.5" width="324.8" height="1"/><rect class="cls-3" x="0.2" y="29.8" width="324.8" height="1"/><polygon class="cls-3" points="19.1 8.5 325 8.5 325 9.5 16.9 9.5 19.1 8.5"/><rect class="cls-3" x="0.2" y="382" width="324.8" height="1"/><rect class="cls-3" x="0.2" y="361.3" width="324.8" height="1"/><rect class="cls-3" x="0.2" y="340.5" width="324.8" height="1"/><rect class="cls-3" x="0.2" y="319.8" width="324.8" height="1"/><rect class="cls-3" x="0.2" y="299" width="324.8" height="1"/><rect class="cls-3" x="0.2" y="278.3" width="324.8" height="1"/><rect class="cls-3" x="0.2" y="257.5" width="324.8" height="1"/><rect class="cls-3" x="0.2" y="236.8" width="324.8" height="1"/><rect class="cls-3" x="0.2" y="216" width="324.8" height="1"/><rect class="cls-3" x="0.2" y="195.3" width="324.8" height="1"/><rect class="cls-3" x="0.2" y="174.5" width="324.8" height="1"/><rect class="cls-3" x="0.2" y="153.8" width="324.8" height="1"/><rect class="cls-3" x="0.2" y="133" width="324.8" height="1"/></g><rect class="cls-3" x="0.2" y="444.3" width="324.8" height="1"/><rect class="cls-3" x="0.2" y="423.5" width="324.8" height="1"/><rect class="cls-3" x="0.2" y="402.8" width="324.8" height="1"/><polygon class="cls-4" points="303.4 589.5 12 589.5 13.8 590.5 305.2 590.5 303.4 589.5"/><polygon class="cls-3" points="325 589.5 303.4 589.5 305.2 590.5 325 590.5 325 589.5"/><rect class="cls-3" x="0.2" y="568.8" width="324.8" height="1"/><rect class="cls-3" x="0.2" y="548" width="324.8" height="1"/><rect class="cls-3" x="0.2" y="527.3" width="324.8" height="1"/><rect class="cls-3" x="0.2" y="506.5" width="324.8" height="1"/><rect class="cls-3" x="0.2" y="485.8" width="324.8" height="1"/><rect class="cls-3" x="0.2" y="465" width="324.8" height="1"/><g class="cls-6"><rect class="cls-7" x="26.8" y="8" width="2" height="2"/><rect class="cls-7" x="47.5" y="8" width="2" height="2"/><rect class="cls-7" x="68.3" y="8" width="2" height="2"/><rect class="cls-7" x="26.8" y="28.8" width="2" height="2"/><rect class="cls-7" x="6" y="28.8" width="2" height="2"/><rect class="cls-7" x="47.5" y="28.8" width="2" height="2"/><rect class="cls-7" x="68.3" y="28.8" width="2" height="2"/><rect class="cls-7" x="26.8" y="49.5" width="2" height="2"/><rect class="cls-7" x="6" y="49.5" width="2" height="2"/><rect class="cls-7" x="47.5" y="49.5" width="2" height="2"/><rect class="cls-7" x="68.3" y="49.5" width="2" height="2"/><rect class="cls-7" x="26.8" y="70.3" width="2" height="2"/><rect class="cls-7" x="6" y="70.3" width="2" height="2"/><rect class="cls-7" x="47.5" y="70.3" width="2" height="2"/><rect class="cls-7" x="68.3" y="70.3" width="2" height="2"/><polygon class="cls-7" points="7.5 87 6.5 87 6.5 91.5 2 91.5 2 92.5 6.5 92.5 6.5 97 7.5 97 7.5 92.5 12 92.5 12 91.5 7.5 91.5 7.5 87"/><rect class="cls-7" x="26.8" y="91" width="2" height="2"/><rect class="cls-7" x="47.5" y="91" width="2" height="2"/><rect class="cls-7" x="68.3" y="91" width="2" height="2"/><rect class="cls-7" x="26.8" y="111.8" width="2" height="2"/><rect class="cls-7" x="6" y="111.8" width="2" height="2"/><rect class="cls-7" x="47.5" y="111.8" width="2" height="2"/><rect class="cls-7" x="68.3" y="111.8" width="2" height="2"/><rect class="cls-7" x="26.8" y="132.5" width="2" height="2"/><rect class="cls-7" x="6" y="132.5" width="2" height="2"/><rect class="cls-7" x="47.5" y="132.5" width="2" height="2"/><rect class="cls-7" x="68.3" y="132.5" width="2" height="2"/><rect class="cls-7" x="26.8" y="153.3" width="2" height="2"/><rect class="cls-7" x="6" y="153.3" width="2" height="2"/><rect class="cls-7" x="47.5" y="153.3" width="2" height="2"/><rect class="cls-7" x="68.3" y="153.3" width="2" height="2"/><polygon class="cls-7" points="7.5 170 6.5 170 6.5 174.5 2 174.5 2 175.5 6.5 175.5 6.5 180 7.5 180 7.5 175.5 12 175.5 12 174.5 7.5 174.5 7.5 170"/><rect class="cls-7" x="26.8" y="174" width="2" height="2"/><rect class="cls-7" x="47.5" y="174" width="2" height="2"/><rect class="cls-7" x="68.3" y="174" width="2" height="2"/><rect class="cls-7" x="26.8" y="194.8" width="2" height="2"/><rect class="cls-7" x="6" y="194.8" width="2" height="2"/><rect class="cls-7" x="47.5" y="194.8" width="2" height="2"/><rect class="cls-7" x="68.3" y="194.8" width="2" height="2"/><rect class="cls-7" x="26.8" y="215.5" width="2" height="2"/><rect class="cls-7" x="6" y="215.5" width="2" height="2"/><rect class="cls-7" x="47.5" y="215.5" width="2" height="2"/><rect class="cls-7" x="68.3" y="215.5" width="2" height="2"/><rect class="cls-7" x="26.8" y="236.3" width="2" height="2"/><rect class="cls-7" x="6" y="236.3" width="2" height="2"/><rect class="cls-7" x="47.5" y="236.3" width="2" height="2"/><rect class="cls-7" x="68.3" y="236.3" width="2" height="2"/><polygon class="cls-7" points="7.5 253 6.5 253 6.5 257.5 2 257.5 2 258.5 6.5 258.5 6.5 263 7.5 263 7.5 258.5 12 258.5 12 257.5 7.5 257.5 7.5 253"/><rect class="cls-7" x="26.8" y="257" width="2" height="2"/><rect class="cls-7" x="47.5" y="257" width="2" height="2"/><rect class="cls-7" x="68.3" y="257" width="2" height="2"/><rect class="cls-7" x="26.8" y="277.8" width="2" height="2"/><rect class="cls-7" x="6" y="277.8" width="2" height="2"/><rect class="cls-7" x="47.5" y="277.8" width="2" height="2"/><rect class="cls-7" x="68.3" y="277.8" width="2" height="2"/><rect class="cls-7" x="26.8" y="298.5" width="2" height="2"/><rect class="cls-7" x="6" y="298.5" width="2" height="2"/><rect class="cls-7" x="47.5" y="298.5" width="2" height="2"/><rect class="cls-7" x="68.3" y="298.5" width="2" height="2"/><rect class="cls-7" x="26.8" y="319.3" width="2" height="2"/><rect class="cls-7" x="6" y="319.3" width="2" height="2"/><rect class="cls-7" x="47.5" y="319.3" width="2" height="2"/><rect class="cls-7" x="68.3" y="319.3" width="2" height="2"/><polygon class="cls-7" points="7.5 336 6.5 336 6.5 340.5 2 340.5 2 341.5 6.5 341.5 6.5 346 7.5 346 7.5 341.5 12 341.5 12 340.5 7.5 340.5 7.5 336"/><rect class="cls-7" x="26.8" y="340" width="2" height="2"/><rect class="cls-7" x="47.5" y="340" width="2" height="2"/><rect class="cls-7" x="68.3" y="340" width="2" height="2"/><rect class="cls-7" x="26.8" y="360.8" width="2" height="2"/><rect class="cls-7" x="6" y="360.8" width="2" height="2"/><rect class="cls-7" x="47.5" y="360.8" width="2" height="2"/><rect class="cls-7" x="68.3" y="360.8" width="2" height="2"/><rect class="cls-7" x="26.8" y="381.5" width="2" height="2"/><rect class="cls-7" x="6" y="381.5" width="2" height="2"/><rect class="cls-7" x="47.5" y="381.5" width="2" height="2"/><rect class="cls-7" x="68.3" y="381.5" width="2" height="2"/><rect class="cls-7" x="26.8" y="402.3" width="2" height="2"/><rect class="cls-7" x="6" y="402.3" width="2" height="2"/><rect class="cls-7" x="47.5" y="402.3" width="2" height="2"/><rect class="cls-7" x="68.3" y="402.3" width="2" height="2"/><polygon class="cls-7" points="7.5 419 6.5 419 6.5 423.5 2 423.5 2 424.5 6.5 424.5 6.5 429 7.5 429 7.5 424.5 12 424.5 12 423.5 7.5 423.5 7.5 419"/><rect class="cls-7" x="26.8" y="423" width="2" height="2"/><rect class="cls-7" x="47.5" y="423" width="2" height="2"/><rect class="cls-7" x="68.3" y="423" width="2" height="2"/><rect class="cls-7" x="26.8" y="443.8" width="2" height="2"/><rect class="cls-7" x="6" y="443.8" width="2" height="2"/><rect class="cls-7" x="47.5" y="443.8" width="2" height="2"/><rect class="cls-7" x="68.3" y="443.8" width="2" height="2"/><rect class="cls-7" x="26.8" y="464.5" width="2" height="2"/><rect class="cls-7" x="6" y="464.5" width="2" height="2"/><rect class="cls-7" x="47.5" y="464.5" width="2" height="2"/><rect class="cls-7" x="68.3" y="464.5" width="2" height="2"/><rect class="cls-7" x="26.8" y="485.3" width="2" height="2"/><rect class="cls-7" x="6" y="485.3" width="2" height="2"/><rect class="cls-7" x="47.5" y="485.3" width="2" height="2"/><rect class="cls-7" x="68.3" y="485.3" width="2" height="2"/><polygon class="cls-7" points="7.5 502 6.5 502 6.5 506.5 2 506.5 2 507.5 6.5 507.5 6.5 512 7.5 512 7.5 507.5 12 507.5 12 506.5 7.5 506.5 7.5 502"/><rect class="cls-7" x="26.8" y="506" width="2" height="2"/><rect class="cls-7" x="47.5" y="506" width="2" height="2"/><rect class="cls-7" x="68.3" y="506" width="2" height="2"/><rect class="cls-7" x="26.8" y="526.8" width="2" height="2"/><rect class="cls-7" x="6" y="526.8" width="2" height="2"/><rect class="cls-7" x="47.5" y="526.8" width="2" height="2"/><rect class="cls-7" x="68.3" y="526.8" width="2" height="2"/><rect class="cls-7" x="26.8" y="547.5" width="2" height="2"/><rect class="cls-7" x="6" y="547.5" width="2" height="2"/><rect class="cls-7" x="47.5" y="547.5" width="2" height="2"/><rect class="cls-7" x="68.3" y="547.5" width="2" height="2"/><rect class="cls-7" x="26.8" y="568.3" width="2" height="2"/><rect class="cls-7" x="6" y="568.3" width="2" height="2"/><rect class="cls-7" x="47.5" y="568.3" width="2" height="2"/><rect class="cls-7" x="68.3" y="568.3" width="2" height="2"/><rect class="cls-8" x="26.8" y="589" width="2" height="2"/><rect class="cls-8" x="47.5" y="589" width="2" height="2"/><rect class="cls-8" x="68.3" y="589" width="2" height="2"/><polygon class="cls-7" points="90.5 4 89.5 4 89.5 8.5 85 8.5 85 9.5 89.5 9.5 89.5 14 90.5 14 90.5 9.5 95 9.5 95 8.5 90.5 8.5 90.5 4"/><rect class="cls-7" x="109.8" y="8" width="2" height="2"/><rect class="cls-7" x="130.5" y="8" width="2" height="2"/><rect class="cls-7" x="151.3" y="8" width="2" height="2"/><rect class="cls-7" x="109.8" y="28.8" width="2" height="2"/><rect class="cls-7" x="89" y="28.8" width="2" height="2"/><rect class="cls-7" x="130.5" y="28.8" width="2" height="2"/><rect class="cls-7" x="151.3" y="28.8" width="2" height="2"/><rect class="cls-7" x="109.8" y="49.5" width="2" height="2"/><rect class="cls-7" x="89" y="49.5" width="2" height="2"/><rect class="cls-7" x="130.5" y="49.5" width="2" height="2"/><rect class="cls-7" x="151.3" y="49.5" width="2" height="2"/><rect class="cls-7" x="109.8" y="70.3" width="2" height="2"/><rect class="cls-7" x="89" y="70.3" width="2" height="2"/><rect class="cls-7" x="130.5" y="70.3" width="2" height="2"/><rect class="cls-7" x="151.3" y="70.3" width="2" height="2"/><polygon class="cls-7" points="90.5 87 89.5 87 89.5 91.5 85 91.5 85 92.5 89.5 92.5 89.5 97 90.5 97 90.5 92.5 95 92.5 95 91.5 90.5 91.5 90.5 87"/><rect class="cls-7" x="109.8" y="91" width="2" height="2"/><rect class="cls-7" x="130.5" y="91" width="2" height="2"/><rect class="cls-7" x="151.3" y="91" width="2" height="2"/><rect class="cls-7" x="109.8" y="111.8" width="2" height="2"/><rect class="cls-7" x="89" y="111.8" width="2" height="2"/><rect class="cls-7" x="130.5" y="111.8" width="2" height="2"/><rect class="cls-7" x="151.3" y="111.8" width="2" height="2"/><rect class="cls-7" x="109.8" y="132.5" width="2" height="2"/><rect class="cls-7" x="89" y="132.5" width="2" height="2"/><rect class="cls-7" x="130.5" y="132.5" width="2" height="2"/><rect class="cls-7" x="151.3" y="132.5" width="2" height="2"/><rect class="cls-7" x="109.8" y="153.3" width="2" height="2"/><rect class="cls-7" x="89" y="153.3" width="2" height="2"/><rect class="cls-7" x="130.5" y="153.3" width="2" height="2"/><rect class="cls-7" x="151.3" y="153.3" width="2" height="2"/><polygon class="cls-7" points="90.5 170 89.5 170 89.5 174.5 85 174.5 85 175.5 89.5 175.5 89.5 180 90.5 180 90.5 175.5 95 175.5 95 174.5 90.5 174.5 90.5 170"/><rect class="cls-7" x="109.8" y="174" width="2" height="2"/><rect class="cls-7" x="130.5" y="174" width="2" height="2"/><rect class="cls-7" x="151.3" y="174" width="2" height="2"/><rect class="cls-7" x="109.8" y="194.8" width="2" height="2"/><rect class="cls-7" x="89" y="194.8" width="2" height="2"/><rect class="cls-7" x="130.5" y="194.8" width="2" height="2"/><rect class="cls-7" x="151.3" y="194.8" width="2" height="2"/><rect class="cls-7" x="109.8" y="215.5" width="2" height="2"/><rect class="cls-7" x="89" y="215.5" width="2" height="2"/><rect class="cls-7" x="130.5" y="215.5" width="2" height="2"/><rect class="cls-7" x="151.3" y="215.5" width="2" height="2"/><rect class="cls-7" x="109.8" y="236.3" width="2" height="2"/><rect class="cls-7" x="89" y="236.3" width="2" height="2"/><rect class="cls-7" x="130.5" y="236.3" width="2" height="2"/><rect class="cls-7" x="151.3" y="236.3" width="2" height="2"/><polygon class="cls-7" points="90.5 253 89.5 253 89.5 257.5 85 257.5 85 258.5 89.5 258.5 89.5 263 90.5 263 90.5 258.5 95 258.5 95 257.5 90.5 257.5 90.5 253"/><rect class="cls-7" x="109.8" y="257" width="2" height="2"/><rect class="cls-7" x="130.5" y="257" width="2" height="2"/><rect class="cls-7" x="151.3" y="257" width="2" height="2"/><rect class="cls-7" x="109.8" y="277.8" width="2" height="2"/><rect class="cls-7" x="89" y="277.8" width="2" height="2"/><rect class="cls-7" x="130.5" y="277.8" width="2" height="2"/><rect class="cls-7" x="151.3" y="277.8" width="2" height="2"/><rect class="cls-7" x="109.8" y="298.5" width="2" height="2"/><rect class="cls-7" x="89" y="298.5" width="2" height="2"/><rect class="cls-7" x="130.5" y="298.5" width="2" height="2"/><rect class="cls-7" x="151.3" y="298.5" width="2" height="2"/><rect class="cls-7" x="109.8" y="319.3" width="2" height="2"/><rect class="cls-7" x="89" y="319.3" width="2" height="2"/><rect class="cls-7" x="130.5" y="319.3" width="2" height="2"/><rect class="cls-7" x="151.3" y="319.3" width="2" height="2"/><polygon class="cls-7" points="90.5 336 89.5 336 89.5 340.5 85 340.5 85 341.5 89.5 341.5 89.5 346 90.5 346 90.5 341.5 95 341.5 95 340.5 90.5 340.5 90.5 336"/><rect class="cls-7" x="109.8" y="340" width="2" height="2"/><rect class="cls-7" x="130.5" y="340" width="2" height="2"/><rect class="cls-7" x="151.3" y="340" width="2" height="2"/><rect class="cls-7" x="109.8" y="360.8" width="2" height="2"/><rect class="cls-7" x="89" y="360.8" width="2" height="2"/><rect class="cls-7" x="130.5" y="360.8" width="2" height="2"/><rect class="cls-7" x="151.3" y="360.8" width="2" height="2"/><rect class="cls-7" x="109.8" y="381.5" width="2" height="2"/><rect class="cls-7" x="89" y="381.5" width="2" height="2"/><rect class="cls-7" x="130.5" y="381.5" width="2" height="2"/><rect class="cls-7" x="151.3" y="381.5" width="2" height="2"/><rect class="cls-7" x="109.8" y="402.3" width="2" height="2"/><rect class="cls-7" x="89" y="402.3" width="2" height="2"/><rect class="cls-7" x="130.5" y="402.3" width="2" height="2"/><rect class="cls-7" x="151.3" y="402.3" width="2" height="2"/><polygon class="cls-7" points="90.5 419 89.5 419 89.5 423.5 85 423.5 85 424.5 89.5 424.5 89.5 429 90.5 429 90.5 424.5 95 424.5 95 423.5 90.5 423.5 90.5 419"/><rect class="cls-7" x="109.8" y="423" width="2" height="2"/><rect class="cls-7" x="130.5" y="423" width="2" height="2"/><rect class="cls-7" x="151.3" y="423" width="2" height="2"/><rect class="cls-7" x="109.8" y="443.8" width="2" height="2"/><rect class="cls-7" x="89" y="443.8" width="2" height="2"/><rect class="cls-7" x="130.5" y="443.8" width="2" height="2"/><rect class="cls-7" x="151.3" y="443.8" width="2" height="2"/><rect class="cls-7" x="109.8" y="464.5" width="2" height="2"/><rect class="cls-7" x="89" y="464.5" width="2" height="2"/><rect class="cls-7" x="130.5" y="464.5" width="2" height="2"/><rect class="cls-7" x="151.3" y="464.5" width="2" height="2"/><rect class="cls-7" x="109.8" y="485.3" width="2" height="2"/><rect class="cls-7" x="89" y="485.3" width="2" height="2"/><rect class="cls-7" x="130.5" y="485.3" width="2" height="2"/><rect class="cls-7" x="151.3" y="485.3" width="2" height="2"/><polygon class="cls-7" points="90.5 502 89.5 502 89.5 506.5 85 506.5 85 507.5 89.5 507.5 89.5 512 90.5 512 90.5 507.5 95 507.5 95 506.5 90.5 506.5 90.5 502"/><rect class="cls-7" x="109.8" y="506" width="2" height="2"/><rect class="cls-7" x="130.5" y="506" width="2" height="2"/><rect class="cls-7" x="151.3" y="506" width="2" height="2"/><rect class="cls-7" x="109.8" y="526.8" width="2" height="2"/><rect class="cls-7" x="89" y="526.8" width="2" height="2"/><rect class="cls-7" x="130.5" y="526.8" width="2" height="2"/><rect class="cls-7" x="151.3" y="526.8" width="2" height="2"/><rect class="cls-7" x="109.8" y="547.5" width="2" height="2"/><rect class="cls-7" x="89" y="547.5" width="2" height="2"/><rect class="cls-7" x="130.5" y="547.5" width="2" height="2"/><rect class="cls-7" x="151.3" y="547.5" width="2" height="2"/><rect class="cls-7" x="109.8" y="568.3" width="2" height="2"/><rect class="cls-7" x="89" y="568.3" width="2" height="2"/><rect class="cls-7" x="130.5" y="568.3" width="2" height="2"/><rect class="cls-7" x="151.3" y="568.3" width="2" height="2"/><polygon class="cls-8" points="90.5 585 89.5 585 89.5 589.5 85 589.5 85 590.5 89.5 590.5 89.5 595 90.5 595 90.5 590.5 95 590.5 95 589.5 90.5 589.5 90.5 585"/><rect class="cls-8" x="109.8" y="589" width="2" height="2"/><rect class="cls-8" x="130.5" y="589" width="2" height="2"/><rect class="cls-8" x="151.3" y="589" width="2" height="2"/><polygon class="cls-7" points="173.5 4 172.5 4 172.5 8.5 168 8.5 168 9.5 172.5 9.5 172.5 14 173.5 14 173.5 9.5 178 9.5 178 8.5 173.5 8.5 173.5 4"/><rect class="cls-7" x="192.8" y="8" width="2" height="2"/><rect class="cls-7" x="213.5" y="8" width="2" height="2"/><rect class="cls-7" x="234.3" y="8" width="2" height="2"/><rect class="cls-7" x="192.8" y="28.8" width="2" height="2"/><rect class="cls-7" x="172" y="28.8" width="2" height="2"/><rect class="cls-7" x="213.5" y="28.8" width="2" height="2"/><rect class="cls-7" x="234.3" y="28.8" width="2" height="2"/><rect class="cls-7" x="192.8" y="49.5" width="2" height="2"/><rect class="cls-7" x="172" y="49.5" width="2" height="2"/><rect class="cls-7" x="213.5" y="49.5" width="2" height="2"/><rect class="cls-7" x="234.3" y="49.5" width="2" height="2"/><rect class="cls-7" x="192.8" y="70.3" width="2" height="2"/><rect class="cls-7" x="172" y="70.3" width="2" height="2"/><rect class="cls-7" x="213.5" y="70.3" width="2" height="2"/><rect class="cls-7" x="234.3" y="70.3" width="2" height="2"/><polygon class="cls-7" points="173.5 87 172.5 87 172.5 91.5 168 91.5 168 92.5 172.5 92.5 172.5 97 173.5 97 173.5 92.5 178 92.5 178 91.5 173.5 91.5 173.5 87"/><rect class="cls-7" x="192.8" y="91" width="2" height="2"/><rect class="cls-7" x="213.5" y="91" width="2" height="2"/><rect class="cls-7" x="234.3" y="91" width="2" height="2"/><rect class="cls-7" x="192.8" y="111.8" width="2" height="2"/><rect class="cls-7" x="172" y="111.8" width="2" height="2"/><rect class="cls-7" x="213.5" y="111.8" width="2" height="2"/><rect class="cls-7" x="234.3" y="111.8" width="2" height="2"/><rect class="cls-7" x="192.8" y="132.5" width="2" height="2"/><rect class="cls-7" x="172" y="132.5" width="2" height="2"/><rect class="cls-7" x="213.5" y="132.5" width="2" height="2"/><rect class="cls-7" x="234.3" y="132.5" width="2" height="2"/><rect class="cls-7" x="192.8" y="153.3" width="2" height="2"/><rect class="cls-7" x="172" y="153.3" width="2" height="2"/><rect class="cls-7" x="213.5" y="153.3" width="2" height="2"/><rect class="cls-7" x="234.3" y="153.3" width="2" height="2"/><polygon class="cls-7" points="173.5 170 172.5 170 172.5 174.5 168 174.5 168 175.5 172.5 175.5 172.5 180 173.5 180 173.5 175.5 178 175.5 178 174.5 173.5 174.5 173.5 170"/><rect class="cls-7" x="192.8" y="174" width="2" height="2"/><rect class="cls-7" x="213.5" y="174" width="2" height="2"/><rect class="cls-7" x="234.3" y="174" width="2" height="2"/><rect class="cls-7" x="192.8" y="194.8" width="2" height="2"/><rect class="cls-7" x="172" y="194.8" width="2" height="2"/><rect class="cls-7" x="213.5" y="194.8" width="2" height="2"/><rect class="cls-7" x="234.3" y="194.8" width="2" height="2"/><rect class="cls-7" x="192.8" y="215.5" width="2" height="2"/><rect class="cls-7" x="172" y="215.5" width="2" height="2"/><rect class="cls-7" x="213.5" y="215.5" width="2" height="2"/><rect class="cls-7" x="234.3" y="215.5" width="2" height="2"/><rect class="cls-7" x="192.8" y="236.3" width="2" height="2"/><rect class="cls-7" x="172" y="236.3" width="2" height="2"/><rect class="cls-7" x="213.5" y="236.3" width="2" height="2"/><rect class="cls-7" x="234.3" y="236.3" width="2" height="2"/><polygon class="cls-7" points="173.5 253 172.5 253 172.5 257.5 168 257.5 168 258.5 172.5 258.5 172.5 263 173.5 263 173.5 258.5 178 258.5 178 257.5 173.5 257.5 173.5 253"/><rect class="cls-7" x="192.8" y="257" width="2" height="2"/><rect class="cls-7" x="213.5" y="257" width="2" height="2"/><rect class="cls-7" x="234.3" y="257" width="2" height="2"/><rect class="cls-7" x="192.8" y="277.8" width="2" height="2"/><rect class="cls-7" x="172" y="277.8" width="2" height="2"/><rect class="cls-7" x="213.5" y="277.8" width="2" height="2"/><rect class="cls-7" x="234.3" y="277.8" width="2" height="2"/><rect class="cls-7" x="192.8" y="298.5" width="2" height="2"/><rect class="cls-7" x="172" y="298.5" width="2" height="2"/><rect class="cls-7" x="213.5" y="298.5" width="2" height="2"/><rect class="cls-7" x="234.3" y="298.5" width="2" height="2"/><rect class="cls-7" x="192.8" y="319.3" width="2" height="2"/><rect class="cls-7" x="172" y="319.3" width="2" height="2"/><rect class="cls-7" x="213.5" y="319.3" width="2" height="2"/><rect class="cls-7" x="234.3" y="319.3" width="2" height="2"/><polygon class="cls-7" points="173.5 336 172.5 336 172.5 340.5 168 340.5 168 341.5 172.5 341.5 172.5 346 173.5 346 173.5 341.5 178 341.5 178 340.5 173.5 340.5 173.5 336"/><rect class="cls-7" x="192.8" y="340" width="2" height="2"/><rect class="cls-7" x="213.5" y="340" width="2" height="2"/><rect class="cls-7" x="234.3" y="340" width="2" height="2"/><rect class="cls-7" x="192.8" y="360.8" width="2" height="2"/><rect class="cls-7" x="172" y="360.8" width="2" height="2"/><rect class="cls-7" x="213.5" y="360.8" width="2" height="2"/><rect class="cls-7" x="234.3" y="360.8" width="2" height="2"/><rect class="cls-7" x="192.8" y="381.5" width="2" height="2"/><rect class="cls-7" x="172" y="381.5" width="2" height="2"/><rect class="cls-7" x="213.5" y="381.5" width="2" height="2"/><rect class="cls-7" x="234.3" y="381.5" width="2" height="2"/><rect class="cls-7" x="192.8" y="402.3" width="2" height="2"/><rect class="cls-7" x="172" y="402.3" width="2" height="2"/><rect class="cls-7" x="213.5" y="402.3" width="2" height="2"/><rect class="cls-7" x="234.3" y="402.3" width="2" height="2"/><polygon class="cls-7" points="173.5 419 172.5 419 172.5 423.5 168 423.5 168 424.5 172.5 424.5 172.5 429 173.5 429 173.5 424.5 178 424.5 178 423.5 173.5 423.5 173.5 419"/><rect class="cls-7" x="192.8" y="423" width="2" height="2"/><rect class="cls-7" x="213.5" y="423" width="2" height="2"/><rect class="cls-7" x="234.3" y="423" width="2" height="2"/><rect class="cls-7" x="192.8" y="443.8" width="2" height="2"/><rect class="cls-7" x="172" y="443.8" width="2" height="2"/><rect class="cls-7" x="213.5" y="443.8" width="2" height="2"/><rect class="cls-7" x="234.3" y="443.8" width="2" height="2"/><rect class="cls-7" x="192.8" y="464.5" width="2" height="2"/><rect class="cls-7" x="172" y="464.5" width="2" height="2"/><rect class="cls-7" x="213.5" y="464.5" width="2" height="2"/><rect class="cls-7" x="234.3" y="464.5" width="2" height="2"/><rect class="cls-7" x="192.8" y="485.3" width="2" height="2"/><rect class="cls-7" x="172" y="485.3" width="2" height="2"/><rect class="cls-7" x="213.5" y="485.3" width="2" height="2"/><rect class="cls-7" x="234.3" y="485.3" width="2" height="2"/><polygon class="cls-7" points="173.5 502 172.5 502 172.5 506.5 168 506.5 168 507.5 172.5 507.5 172.5 512 173.5 512 173.5 507.5 178 507.5 178 506.5 173.5 506.5 173.5 502"/><rect class="cls-7" x="192.8" y="506" width="2" height="2"/><rect class="cls-7" x="213.5" y="506" width="2" height="2"/><rect class="cls-7" x="234.3" y="506" width="2" height="2"/><rect class="cls-7" x="192.8" y="526.8" width="2" height="2"/><rect class="cls-7" x="172" y="526.8" width="2" height="2"/><rect class="cls-7" x="213.5" y="526.8" width="2" height="2"/><rect class="cls-7" x="234.3" y="526.8" width="2" height="2"/><rect class="cls-7" x="192.8" y="547.5" width="2" height="2"/><rect class="cls-7" x="172" y="547.5" width="2" height="2"/><rect class="cls-7" x="213.5" y="547.5" width="2" height="2"/><rect class="cls-7" x="234.3" y="547.5" width="2" height="2"/><rect class="cls-7" x="192.8" y="568.3" width="2" height="2"/><rect class="cls-7" x="172" y="568.3" width="2" height="2"/><rect class="cls-7" x="213.5" y="568.3" width="2" height="2"/><rect class="cls-7" x="234.3" y="568.3" width="2" height="2"/><polygon class="cls-8" points="173.5 585 172.5 585 172.5 589.5 168 589.5 168 590.5 172.5 590.5 172.5 595 173.5 595 173.5 590.5 178 590.5 178 589.5 173.5 589.5 173.5 585"/><rect class="cls-8" x="192.8" y="589" width="2" height="2"/><rect class="cls-8" x="213.5" y="589" width="2" height="2"/><rect class="cls-8" x="234.3" y="589" width="2" height="2"/><polygon class="cls-7" points="256.5 4 255.5 4 255.5 8.5 251 8.5 251 9.5 255.5 9.5 255.5 14 256.5 14 256.5 9.5 261 9.5 261 8.5 256.5 8.5 256.5 4"/><rect class="cls-7" x="275.8" y="8" width="2" height="2"/><rect class="cls-7" x="296.5" y="8" width="2" height="2"/><rect class="cls-7" x="317.3" y="8" width="2" height="2"/><rect class="cls-7" x="275.8" y="28.8" width="2" height="2"/><rect class="cls-7" x="255" y="28.8" width="2" height="2"/><rect class="cls-7" x="296.5" y="28.8" width="2" height="2"/><rect class="cls-7" x="317.3" y="28.8" width="2" height="2"/><rect class="cls-7" x="275.8" y="49.5" width="2" height="2"/><rect class="cls-7" x="255" y="49.5" width="2" height="2"/><rect class="cls-7" x="296.5" y="49.5" width="2" height="2"/><rect class="cls-7" x="317.3" y="49.5" width="2" height="2"/><rect class="cls-7" x="275.8" y="70.3" width="2" height="2"/><rect class="cls-7" x="255" y="70.3" width="2" height="2"/><rect class="cls-7" x="296.5" y="70.3" width="2" height="2"/><rect class="cls-7" x="317.3" y="70.3" width="2" height="2"/><polygon class="cls-7" points="256.5 87 255.5 87 255.5 91.5 251 91.5 251 92.5 255.5 92.5 255.5 97 256.5 97 256.5 92.5 261 92.5 261 91.5 256.5 91.5 256.5 87"/><rect class="cls-7" x="275.8" y="91" width="2" height="2"/><rect class="cls-7" x="296.5" y="91" width="2" height="2"/><rect class="cls-7" x="317.3" y="91" width="2" height="2"/><rect class="cls-7" x="275.8" y="111.8" width="2" height="2"/><rect class="cls-7" x="255" y="111.8" width="2" height="2"/><rect class="cls-7" x="296.5" y="111.8" width="2" height="2"/><rect class="cls-7" x="317.3" y="111.8" width="2" height="2"/><rect class="cls-7" x="275.8" y="132.5" width="2" height="2"/><rect class="cls-7" x="255" y="132.5" width="2" height="2"/><rect class="cls-7" x="296.5" y="132.5" width="2" height="2"/><rect class="cls-7" x="317.3" y="132.5" width="2" height="2"/><rect class="cls-7" x="275.8" y="153.3" width="2" height="2"/><rect class="cls-7" x="255" y="153.3" width="2" height="2"/><rect class="cls-7" x="296.5" y="153.3" width="2" height="2"/><rect class="cls-7" x="317.3" y="153.3" width="2" height="2"/><polygon class="cls-7" points="256.5 170 255.5 170 255.5 174.5 251 174.5 251 175.5 255.5 175.5 255.5 180 256.5 180 256.5 175.5 261 175.5 261 174.5 256.5 174.5 256.5 170"/><rect class="cls-7" x="275.8" y="174" width="2" height="2"/><rect class="cls-7" x="296.5" y="174" width="2" height="2"/><rect class="cls-7" x="317.3" y="174" width="2" height="2"/><rect class="cls-7" x="275.8" y="194.8" width="2" height="2"/><rect class="cls-7" x="255" y="194.8" width="2" height="2"/><rect class="cls-7" x="296.5" y="194.8" width="2" height="2"/><rect class="cls-7" x="317.3" y="194.8" width="2" height="2"/><rect class="cls-7" x="275.8" y="215.5" width="2" height="2"/><rect class="cls-7" x="255" y="215.5" width="2" height="2"/><rect class="cls-7" x="296.5" y="215.5" width="2" height="2"/><rect class="cls-7" x="317.3" y="215.5" width="2" height="2"/><rect class="cls-7" x="275.8" y="236.3" width="2" height="2"/><rect class="cls-7" x="255" y="236.3" width="2" height="2"/><rect class="cls-7" x="296.5" y="236.3" width="2" height="2"/><rect class="cls-7" x="317.3" y="236.3" width="2" height="2"/><polygon class="cls-7" points="256.5 253 255.5 253 255.5 257.5 251 257.5 251 258.5 255.5 258.5 255.5 263 256.5 263 256.5 258.5 261 258.5 261 257.5 256.5 257.5 256.5 253"/><rect class="cls-7" x="275.8" y="257" width="2" height="2"/><rect class="cls-7" x="296.5" y="257" width="2" height="2"/><rect class="cls-7" x="317.3" y="257" width="2" height="2"/><rect class="cls-7" x="275.8" y="277.8" width="2" height="2"/><rect class="cls-7" x="255" y="277.8" width="2" height="2"/><rect class="cls-7" x="296.5" y="277.8" width="2" height="2"/><rect class="cls-7" x="317.3" y="277.8" width="2" height="2"/><rect class="cls-7" x="275.8" y="298.5" width="2" height="2"/><rect class="cls-7" x="255" y="298.5" width="2" height="2"/><rect class="cls-7" x="296.5" y="298.5" width="2" height="2"/><rect class="cls-7" x="317.3" y="298.5" width="2" height="2"/><rect class="cls-7" x="275.8" y="319.3" width="2" height="2"/><rect class="cls-7" x="255" y="319.3" width="2" height="2"/><rect class="cls-7" x="296.5" y="319.3" width="2" height="2"/><rect class="cls-7" x="317.3" y="319.3" width="2" height="2"/><polygon class="cls-7" points="256.5 336 255.5 336 255.5 340.5 251 340.5 251 341.5 255.5 341.5 255.5 346 256.5 346 256.5 341.5 261 341.5 261 340.5 256.5 340.5 256.5 336"/><rect class="cls-7" x="275.8" y="340" width="2" height="2"/><rect class="cls-7" x="296.5" y="340" width="2" height="2"/><rect class="cls-7" x="317.3" y="340" width="2" height="2"/><rect class="cls-7" x="275.8" y="360.8" width="2" height="2"/><rect class="cls-7" x="255" y="360.8" width="2" height="2"/><rect class="cls-7" x="296.5" y="360.8" width="2" height="2"/><rect class="cls-7" x="317.3" y="360.8" width="2" height="2"/><rect class="cls-7" x="275.8" y="381.5" width="2" height="2"/><rect class="cls-7" x="255" y="381.5" width="2" height="2"/><rect class="cls-7" x="296.5" y="381.5" width="2" height="2"/><rect class="cls-7" x="317.3" y="381.5" width="2" height="2"/><rect class="cls-7" x="275.8" y="402.3" width="2" height="2"/><rect class="cls-7" x="255" y="402.3" width="2" height="2"/><rect class="cls-7" x="296.5" y="402.3" width="2" height="2"/><rect class="cls-7" x="317.3" y="402.3" width="2" height="2"/><polygon class="cls-7" points="256.5 419 255.5 419 255.5 423.5 251 423.5 251 424.5 255.5 424.5 255.5 429 256.5 429 256.5 424.5 261 424.5 261 423.5 256.5 423.5 256.5 419"/><rect class="cls-7" x="275.8" y="423" width="2" height="2"/><rect class="cls-7" x="296.5" y="423" width="2" height="2"/><rect class="cls-7" x="317.3" y="423" width="2" height="2"/><rect class="cls-7" x="275.8" y="443.8" width="2" height="2"/><rect class="cls-7" x="255" y="443.8" width="2" height="2"/><rect class="cls-7" x="296.5" y="443.8" width="2" height="2"/><rect class="cls-7" x="317.3" y="443.8" width="2" height="2"/><rect class="cls-7" x="275.8" y="464.5" width="2" height="2"/><rect class="cls-7" x="255" y="464.5" width="2" height="2"/><rect class="cls-7" x="296.5" y="464.5" width="2" height="2"/><rect class="cls-7" x="317.3" y="464.5" width="2" height="2"/><rect class="cls-7" x="275.8" y="485.3" width="2" height="2"/><rect class="cls-7" x="255" y="485.3" width="2" height="2"/><rect class="cls-7" x="296.5" y="485.3" width="2" height="2"/><rect class="cls-7" x="317.3" y="485.3" width="2" height="2"/><polygon class="cls-7" points="256.5 502 255.5 502 255.5 506.5 251 506.5 251 507.5 255.5 507.5 255.5 512 256.5 512 256.5 507.5 261 507.5 261 506.5 256.5 506.5 256.5 502"/><rect class="cls-7" x="275.8" y="506" width="2" height="2"/><rect class="cls-7" x="296.5" y="506" width="2" height="2"/><rect class="cls-7" x="317.3" y="506" width="2" height="2"/><rect class="cls-7" x="275.8" y="526.8" width="2" height="2"/><rect class="cls-7" x="255" y="526.8" width="2" height="2"/><rect class="cls-7" x="296.5" y="526.8" width="2" height="2"/><rect class="cls-7" x="317.3" y="526.8" width="2" height="2"/><rect class="cls-7" x="275.8" y="547.5" width="2" height="2"/><rect class="cls-7" x="255" y="547.5" width="2" height="2"/><rect class="cls-7" x="296.5" y="547.5" width="2" height="2"/><rect class="cls-7" x="317.3" y="547.5" width="2" height="2"/><rect class="cls-7" x="275.8" y="568.3" width="2" height="2"/><rect class="cls-7" x="255" y="568.3" width="2" height="2"/><rect class="cls-7" x="296.5" y="568.3" width="2" height="2"/><rect class="cls-7" x="317.3" y="568.3" width="2" height="2"/><polygon class="cls-8" points="256.5 585 255.5 585 255.5 589.5 251 589.5 251 590.5 255.5 590.5 255.5 595 256.5 595 256.5 590.5 261 590.5 261 589.5 256.5 589.5 256.5 585"/><rect class="cls-8" x="275.8" y="589" width="2" height="2"/><rect class="cls-8" x="296.5" y="589" width="2" height="2"/><rect class="cls-7" x="317.3" y="589" width="2" height="2"/></g><polygon class="cls-9" points="1.6 583 1.6 16.4 37.6 0.13 36.6 602 1.6 583"/></svg>