<svg id="图层_1" data-name="图层 1" xmlns="http://www.w3.org/2000/svg" viewBox="0 0 756 719.4"><defs><style>.cls-1{fill:#142038;opacity:0.5;}.cls-2{fill:#6081c4;}.cls-3{opacity:0.4;}.cls-4{fill:#fff;}.cls-5{fill:#5e93c9;}.cls-6{fill:#6087c6;}.cls-7{opacity:0.2;}.cls-8{fill:#1e2935;}.cls-10,.cls-9{fill:none;stroke-miterlimit:10;}.cls-9{stroke:#4775c6;stroke-width:3px;}.cls-10{stroke:#95ace5;opacity:0.8;isolation:isolate;}</style></defs><title>中间</title><path class="cls-1" d="M381.9,622.8C229.9,621.8,107,498.3,107,346S229.9,70.2,381.9,69.2V0C191.7,1,37.8,155.5,37.8,346S191.7,691,381.9,692Z" transform="translate(-0.3 0)"/><path class="cls-2" d="M386.9,591.4c-134,0-243-109-243-243s109-243,243-243,243,109,243,243S520.9,591.4,386.9,591.4Zm0-475.9c-128.4,0-232.8,104.4-232.8,232.8S258.5,581.1,386.9,581.1,619.7,476.7,619.7,348.3,515.3,115.5,386.9,115.5Z" transform="translate(-0.3 0)"/><g class="cls-3"><path class="cls-4" d="M386.6,663a311.92,311.92,0,0,1-33.5-1.8,311.39,311.39,0,0,1-114.2-35.1,316.06,316.06,0,0,1-46.2-30.2l-5.1-4c-1.1-.9-2.2-1.8-3.2-2.7-.6-.5-1.1-1-1.7-1.5l-7.2-6.2c-.5-.5-1-.9-1.5-1.4l-.8-.8-8.8-8.4-8.1-8.5a312.74,312.74,0,0,1-26.4-32.5l-2.7-3.7c-.8-1.1-1.7-2.4-2.5-3.7l-4.5-7.1c-2.1-3.2-3.9-6.3-5.6-9.3-.7-1.2-1.3-2.3-2-3.4-.4-.7-.8-1.4-1.2-2-.7-1.2-1.4-2.4-2-3.5l-6.6-12.8-3-6.7,1.2-.5,3,6.7,6.5,12.8c.6,1.1,1.2,2.3,1.9,3.5.4.7.8,1.3,1.2,2,.6,1.1,1.3,2.3,2,3.5,1.7,3,3.4,6,5.6,9.2l4.5,7.1c.8,1.3,1.7,2.5,2.5,3.6l2.7,3.7a310.17,310.17,0,0,0,26.3,32.3l8.1,8.5,8.8,8.4a6,6,0,0,1,.8.8,16.61,16.61,0,0,0,1.4,1.3l7.2,6.2c.6.5,1.1,1,1.7,1.5,1,.9,2.1,1.8,3.2,2.7l5.1,4a318.93,318.93,0,0,0,46,30.1,313.72,313.72,0,0,0,54.2,22.7A305,305,0,0,0,353.2,660a323.79,323.79,0,0,0,60.7.6,312.86,312.86,0,0,0,57.8-10.5,307.62,307.62,0,0,0,94-44.3l9.1-6.5,8.4-6.6a14.31,14.31,0,0,1,1.5-1.1,25.25,25.25,0,0,0,2.5-2.1l3.8-3.3c.9-.8,1.8-1.5,2.6-2.3l4.6-4,7.5-7.1c1.8-1.7,3.5-3.3,5-5l5.4-5.7a53,53,0,0,0,4.6-5.1l7.8-9,8.8-11.2a10.34,10.34,0,0,0,1.1-1.5l1.1.7-1.2,1.5-9.6,12-7.1,8.2c-1.4,1.7-3,3.4-4.7,5.1l-5.4,5.7c-1.5,1.7-3.2,3.3-5,5l-7.5,7.1c-1.5,1.4-3.1,2.7-4.7,4.1-.9.7-1.7,1.5-2.6,2.3l-3.8,3.3c-.8.7-1.7,1.4-2.6,2.1a17.1,17.1,0,0,0-1.4,1.1l-8.4,6.6-9.2,6.5a334.06,334.06,0,0,1-42.7,25,326.29,326.29,0,0,1-51.7,19.5,316,316,0,0,1-58.1,10.5A245.26,245.26,0,0,1,386.6,663Z" transform="translate(-0.3 0)"/></g><path class="cls-5" d="M474.6,640l-.3-1.2,1.6-.5a23,23,0,0,0,2.5-.8l12.4-4.2a302.36,302.36,0,0,0,90.7-52.4,310,310,0,0,0,48.8-51.7,318.47,318.47,0,0,0,35.5-61.6,300.52,300.52,0,0,0,18.5-59.2,321.62,321.62,0,0,0,5.5-43.6c.2-3.4.2-6.4.3-8.8,0-1.3.1-2.5.1-3.5l.1-4.4h1.3l-.1,4.4c0,1-.1,2.2-.1,3.5-.1,2.4-.1,5.4-.3,8.9a323.8,323.8,0,0,1-5.5,43.8,303.43,303.43,0,0,1-18.5,59.5,316.09,316.09,0,0,1-35.6,61.9,320.73,320.73,0,0,1-49,51.9,300.87,300.87,0,0,1-51.6,34.9,316.27,316.27,0,0,1-39.5,17.7l-.8.3-11.7,4c-1,.4-2,.6-2.6.8Z" transform="translate(-0.3 0)"/><path class="cls-5" d="M502.7,112.8s1.3.7,3.9,2c1.3.7,2.9,1.5,4.7,2.5s4,2.3,6.5,3.6A263.41,263.41,0,0,1,628.4,246.3c3.1,7.5,6.1,15.4,8.6,23.5,1.3,4.1,2.4,8.3,3.6,12.5.5,2.1,1,4.3,1.5,6.4.3,1.1.5,2.2.8,3.2s.4,2.2.7,3.3a265,265,0,0,1-2.1,114.6,257.1,257.1,0,0,1-22.1,58.9,263.1,263.1,0,0,1-37.3,54A256.07,256.07,0,0,1,558,546.3c-4.2,3.8-8.8,7.2-13.3,10.8-2.2,1.8-4.6,3.3-7,5s-4.7,3.4-7.1,4.9-4.8,3.1-7.3,4.7-5,2.9-7.5,4.3l-3.8,2.2c-1.3.7-2.6,1.3-3.9,2-2.6,1.3-5.2,2.6-7.8,4-2.6,1.2-5.3,2.4-8,3.6-1.3.6-2.6,1.2-4,1.8l-4.1,1.6c-2.7,1.1-5.4,2.2-8.2,3.2s-5.5,1.9-8.3,2.8-5.6,1.8-8.4,2.6-5.6,1.7-8.5,2.3c-5.7,1.3-11.5,2.8-17.3,3.7a259.31,259.31,0,0,1-35.3,3.9c-5.9.1-11.9.4-17.8.1l-4.4-.1c-1.5,0-3-.1-4.4-.2l-8.9-.7c-3-.2-5.9-.6-8.9-1l-4.4-.6c-1.5-.2-3-.4-4.4-.7l-8.8-1.6-2.2-.4-2.2-.5-4.3-1c-5.8-1.2-11.5-3-17.3-4.6-2.9-.8-5.6-1.9-8.5-2.8l-4.2-1.4c-1.4-.5-2.8-1.1-4.2-1.6l-8.3-3.3-8.1-3.7c-1.3-.6-2.7-1.2-4-1.9l-4-2c-2.6-1.4-5.3-2.7-7.9-4.1-5.1-3-10.3-5.8-15.2-9.1-5-3.1-9.8-6.6-14.6-10-2.4-1.7-4.7-3.6-7-5.4l-3.5-2.7c-1.1-.9-2.2-1.9-3.3-2.9l-6.6-5.8-6.4-6.1c-33.5-32.7-57.6-73.9-69.3-116.9a259.73,259.73,0,0,1-9.5-64.8,280,280,0,0,1,1.2-31.8c.3-2.6.7-5.2,1-7.8l.5-3.9.3-1.9.3-1.9c.5-2.5.9-5.1,1.4-7.6.2-1.3.4-2.5.7-3.8l.9-3.7a257.36,257.36,0,0,1,48.7-103.2,259.65,259.65,0,0,1,35.2-37,266.89,266.89,0,0,1,37.3-27c3.1-1.8,6.2-3.6,9.3-5.3s6.2-3.2,9.2-4.7a24,24,0,0,1,2.3-1.1c.8-.3,1.5-.7,2.3-1,1.5-.7,3-1.4,4.5-2s3-1.3,4.4-2,3-1.2,4.4-1.7a263.05,263.05,0,0,1,32.7-10.7c2.5-.6,5-1.1,7.4-1.7s4.7-1.1,7-1.5,4.5-.8,6.6-1.2,4.2-.8,6.2-1c4-.5,7.7-1,11.1-1.4s6.5-.5,9.3-.7l3.9-.3c1.2,0,2.4-.1,3.4-.1,2.1-.1,3.9-.1,5.3-.1,2.9-.1,4.4-.1,4.4-.1s-1.5,0-4.4.1c-1.4,0-3.2.1-5.3.1-1.1,0-2.2.1-3.4.1l-3.9.3c-2.8.2-5.9.5-9.3.7-3.4.4-7.1.9-11.1,1.4-2,.2-4.1.6-6.2,1s-4.3.8-6.6,1.2-4.6,1-7,1.5-4.9,1.1-7.4,1.7c-10,2.8-21.1,5.9-32.7,10.8-1.5.6-2.9,1.2-4.4,1.8s-2.9,1.3-4.4,2-3,1.4-4.5,2c-.8.3-1.5.7-2.3,1s-1.5.8-2.2,1.1c-3,1.5-6.1,3.1-9.2,4.7s-6.1,3.5-9.3,5.3A261.41,261.41,0,0,0,216,151.6a270.49,270.49,0,0,0-35.1,37,263.4,263.4,0,0,0-29.2,47.1,257.73,257.73,0,0,0-19.3,56.1l-.9,3.7c-.3,1.2-.5,2.5-.7,3.8-.4,2.5-.9,5.1-1.4,7.6l-.3,1.9-.2,1.9-.5,3.9c-.3,2.6-.7,5.2-1,7.8l-.6,7.8c-.2,2.6-.4,5.2-.4,7.9-.1,5.3-.4,10.6-.1,16a257.52,257.52,0,0,0,9.5,64.6c11.7,42.9,35.8,83.9,69.3,116.4l6.3,6,6.6,5.7c1.1,1,2.2,1.9,3.3,2.9l3.5,2.7c2.3,1.8,4.6,3.7,7,5.4,4.8,3.4,9.5,6.9,14.6,10,4.9,3.3,10.1,6.1,15.2,9.1,2.6,1.4,5.2,2.7,7.9,4.1l3.9,2c1.3.7,2.7,1.2,4,1.8l8.1,3.6,8.3,3.2c1.4.5,2.7,1.1,4.1,1.6l4.2,1.4c2.8.9,5.6,2,8.4,2.8,5.7,1.6,11.4,3.3,17.2,4.5a257.47,257.47,0,0,0,70.5,6.4,243.35,243.35,0,0,0,35.1-4c5.8-.9,11.5-2.4,17.2-3.7,2.8-.7,5.6-1.6,8.4-2.3s5.6-1.6,8.4-2.6,5.5-1.9,8.3-2.8,5.4-2.1,8.1-3.2l4-1.6c1.3-.6,2.6-1.2,4-1.8,2.6-1.2,5.3-2.4,7.9-3.6s5.1-2.6,7.7-4c1.3-.7,2.6-1.3,3.8-2l3.7-2.2c2.5-1.4,5-2.8,7.4-4.3s4.8-3.1,7.2-4.6,4.7-3.2,7.1-4.8,4.7-3.2,6.9-5c4.4-3.5,9-6.9,13.2-10.7a252.78,252.78,0,0,0,23.9-23.5,257.09,257.09,0,0,0,37-53.7,253.09,253.09,0,0,0,21.8-58.5c.6-2.5,1.1-4.9,1.7-7.4s.9-5,1.4-7.4.9-4.9,1.3-7.4.6-4.9.9-7.4a265.65,265.65,0,0,0,.7-57.2,227.2,227.2,0,0,0-4.1-26.8c-.2-1.1-.4-2.2-.7-3.3s-.5-2.1-.8-3.2c-.5-2.1-1-4.3-1.5-6.4-1.2-4.2-2.2-8.3-3.6-12.4a228.83,228.83,0,0,0-8.6-23.3,259.08,259.08,0,0,0-70.6-96.4,267.17,267.17,0,0,0-39.1-27.7c-2.4-1.3-4.5-2.5-6.4-3.6s-3.5-1.8-4.7-2.5c-2.6-1.3-3.9-2-3.9-2Z" transform="translate(-0.3 0)"/><path class="cls-5" d="M476.1,163.9l3,1.5c1,.5,2.2,1.1,3.7,1.9s3.2,1.8,5.1,2.8a196.2,196.2,0,0,1,30.9,21.8,202.58,202.58,0,0,1,70.8,134.9c.2,1.8.3,3.6.5,5.4s.2,3.7.3,5.5l.1,2.8V349c-.1,1.8-.1,3.7-.2,5.6s-.1,3.7-.3,5.6-.3,3.8-.5,5.8l-.2,2.9-.4,2.9c-.5,3.8-.9,7.7-1.7,11.6-.4,1.9-.7,3.9-1.1,5.8s-.9,3.9-1.4,5.8c-.8,3.9-2,7.7-3.1,11.6a56.18,56.18,0,0,1-1.9,5.8c-.7,1.9-1.3,3.8-2,5.8a207,207,0,0,1-10.1,22.7,191.54,191.54,0,0,1-13,21.7c-2.5,3.4-4.9,7-7.6,10.3-1.3,1.7-2.6,3.4-4,5s-2.8,3.3-4.3,4.9-2.9,3.2-4.4,4.8-3,3.2-4.6,4.7c-3.2,3-6.3,6.1-9.7,8.9a210.94,210.94,0,0,1-21.2,16.1l-5.7,3.6c-1.9,1.2-3.9,2.3-5.8,3.4-3.9,2.3-7.9,4.2-11.9,6.3-2,1-4.1,1.9-6.2,2.8l-3.1,1.4c-1,.5-2.1.8-3.2,1.3-2.1.8-4.2,1.6-6.3,2.5-2.2.7-4.3,1.4-6.5,2.2l-3.2,1.1-3.3.9-6.6,1.8-6.7,1.5c-1.1.2-2.2.5-3.4.7l-3.4.6a209.29,209.29,0,0,1-27.3,3.1l-6.9.1c-1.2,0-2.2.1-3.5,0l-3.4-.1c-2.3-.1-4.5-.1-6.8-.2l-6.9-.6c-2.3-.1-4.6-.5-6.9-.8l-6.9-.9c-4.5-.9-9.1-1.6-13.6-2.7a203.68,203.68,0,0,1-51.4-19.6c-4-2.3-8-4.5-11.8-7.1-1.9-1.3-3.9-2.4-5.7-3.8l-5.6-4c-1.9-1.3-3.6-2.8-5.4-4.2s-3.6-2.8-5.3-4.3l-5.1-4.5c-1.7-1.5-3.3-3.1-4.9-4.7-25.9-25.3-44.5-57.1-53.5-90.4-1.2-4.1-2.1-8.3-3.1-12.5-.5-2.1-.8-4.2-1.2-6.3s-.8-4.2-1-6.3-.5-4.2-.8-6.3c-.1-1-.3-2.1-.4-3.1l-.2-3.1c-.2-2.1-.3-4.2-.5-6.2s-.1-4.2-.2-6.2l-.1-3.1v-3.1c.1-2,.1-4.1.2-6.1,0-1,0-2,.1-3l.2-3.1c.2-2,.3-4.1.5-6.1s.5-4,.8-6,.5-4,.8-5.9.7-3.9,1.1-5.9l.5-2.9.7-2.9a201.35,201.35,0,0,1,93.6-128.7A200.17,200.17,0,0,1,336.7,154c1.9-.4,3.8-.9,5.7-1.3a51.69,51.69,0,0,1,5.4-1.1c1.8-.3,3.4-.6,5.1-.9a39.67,39.67,0,0,1,4.8-.7c3.1-.4,5.9-.7,8.5-1s5-.4,7.1-.5c1.1-.1,2.1-.1,3-.2a21.75,21.75,0,0,0,2.6-.1c1.6,0,3-.1,4.1-.1,2.2,0,3.3-.1,3.3-.1s-1.1,0-3.3.1c-1.1,0-2.5.1-4.1.1a23.48,23.48,0,0,0-2.6.1c-.9.1-1.9.1-3,.2-2.1.2-4.5.4-7.1.6s-5.4.7-8.5,1.1c-1.5.2-3.1.5-4.8.8s-3.3.6-5.1.9-3.5.7-5.4,1.2-3.7.9-5.7,1.3A200.45,200.45,0,0,0,206.5,262.2a198.9,198.9,0,0,0-14.6,42.9l-.6,2.9-.5,2.9c-.3,1.9-.7,3.9-1,5.8s-.5,3.9-.8,5.9-.5,3.9-.7,5.9-.3,4-.4,6l-.2,3c-.1,1-.1,2-.1,3,0,2-.1,4.1-.1,6.1v3l.1,3.1c.1,2,.1,4.1.2,6.1s.3,4.1.5,6.2l.2,3.1c.1,1,.3,2.1.4,3.1.3,2.1.5,4.1.8,6.2s.7,4.1,1.1,6.2.7,4.1,1.2,6.2c1,4.1,1.8,8.2,3.1,12.3a197,197,0,0,0,53.4,88.5c1.6,1.5,3.2,3.1,4.9,4.6l5.1,4.4c1.7,1.5,3.4,2.8,5.2,4.2s3.5,2.8,5.3,4.1l5.5,3.9c1.8,1.3,3.8,2.4,5.6,3.7,3.7,2.5,7.7,4.6,11.6,6.8a198.29,198.29,0,0,0,50.5,18.8c4.4,1.1,8.8,1.7,13.3,2.5,2.2.4,4.5.6,6.7.9s4.5.6,6.7.7l6.7.5c2.3.1,4.5.1,6.8.2l3.4.1c1,0,2.2,0,3.3-.1l6.7-.2a197.11,197.11,0,0,0,26.6-3.2l3.3-.6c1.1-.2,2.2-.5,3.3-.7l6.5-1.5,6.4-1.8,3.2-.9,3.1-1.1c2.1-.7,4.2-1.4,6.3-2.2s4.1-1.6,6.1-2.5c1-.4,2.1-.8,3.1-1.2l3-1.4c2-.9,4-1.8,6-2.8,3.9-2,7.8-3.9,11.6-6.2,1.9-1.1,3.8-2.1,5.6-3.3s3.7-2.4,5.5-3.5A186.12,186.12,0,0,0,515.9,497c3.3-2.7,6.3-5.8,9.4-8.7,1.5-1.5,2.9-3.1,4.4-4.6s2.9-3,4.3-4.7,2.7-3.2,4.1-4.8,2.6-3.3,3.9-4.9c2.6-3.2,4.9-6.7,7.3-10.1a197.05,197.05,0,0,0,12.4-21.1,192.9,192.9,0,0,0,9.6-22c.6-1.9,1.3-3.7,1.9-5.6s1.3-3.7,1.8-5.6c1-3.8,2.2-7.5,2.9-11.3.4-1.9.9-3.7,1.3-5.6s.7-3.8,1-5.6c.7-3.7,1.1-7.5,1.6-11.2l.3-2.8.2-2.8c.1-1.8.3-3.7.4-5.5s.1-3.7.2-5.5.1-3.7.1-5.6v-2.7l-.1-2.7-.1-2.7-.2-2.7c-.1-1.8-.2-3.5-.3-5.3s-.3-3.5-.5-5.2a190.9,190.9,0,0,0-3.3-20.3,196.11,196.11,0,0,0-65.8-108.9A201.84,201.84,0,0,0,483,177.9c-1.8-1-3.4-1.9-4.8-2.6s-2.7-1.4-3.6-1.8l-3-1.5Z" transform="translate(-0.3 0)"/><rect class="cls-5" x="381.2" y="19.7" width="2.6" height="130.5"/><rect class="cls-5" x="381.2" y="551.8" width="2.6" height="167.6"/><rect class="cls-2" x="588.4" y="348.4" width="167.6" height="2.6"/><rect class="cls-6" y="348.4" width="167.6" height="2.6"/><g class="cls-7"><path class="cls-8" d="M623.5,348.1c0,130.7-105.9,236.6-236.6,236.6S150.3,478.8,150.3,348.1,256.2,111.5,386.9,111.5,623.5,217.4,623.5,348.1Z" transform="translate(-0.3 0)"/></g><path class="cls-9" d="M118.9,212.7A302.15,302.15,0,0,0,78.7,363.9c0,167.8,136,303.8,303.8,303.8s303.8-136,303.8-303.8c0-158.1-120.8-288.1-275.2-302.4V49.2" transform="translate(-0.3 0)"/><circle class="cls-10" cx="366.1" cy="350.5" r="309"/><path class="cls-1" d="M389.4,87.2c-2.3,0-4.7,0-7,.1v38.6c2.3-.1,4.7-.1,7-.1,122,0,221,98.9,221,221v2.5H649v-2.5C649,203.4,532.8,87.2,389.4,87.2Z" transform="translate(-0.3 0)"/></svg>