<svg id="图层_1" data-name="图层 1" xmlns="http://www.w3.org/2000/svg" viewBox="0 0 49.6 758.6"><defs><style>.cls-1{fill:#506979;}.cls-2{fill:#293342;}.cls-3{fill:#4b6573;}.cls-4{fill:#3c4f5e;}.cls-5{fill:#3b435b;}.cls-6{fill:#282a3d;}.cls-7{fill:#a9c3e0;}</style></defs><title>未标题-11</title><rect class="cls-1" x="37.7" y="81.1" width="11.1" height="2.7"/><rect class="cls-2" x="37.7" y="83.9" width="11.1" height="1.4"/><rect class="cls-3" x="37.7" y="85.2" width="11.1" height="5"/><rect class="cls-4" x="37.7" y="90.2" width="11.1" height="15.9"/><rect class="cls-2" x="37.7" y="106.1" width="11.1" height="4.6"/><rect class="cls-2" x="37.7" y="157.9" width="11.9" height="2.6"/><rect class="cls-2" x="37.2" y="294.8" width="11.6" height="2.7"/><rect class="cls-2" x="37.2" y="310.4" width="11.6" height="2.7"/><rect class="cls-2" x="37.2" y="330.7" width="11.6" height="2.7"/><rect class="cls-5" x="37.2" y="387.7" width="11.6" height="28.7"/><rect class="cls-2" x="19.8" y="427.2" width="3.5" height="3.5"/><rect class="cls-2" x="37.2" y="473.5" width="11.6" height="3.2"/><rect class="cls-2" x="37.2" y="505.3" width="12.4" height="2.6"/><rect class="cls-2" x="19.8" y="505.3" width="1.8" height="14.1"/><rect class="cls-2" x="8.9" y="527.6" width="6.5" height="9"/><rect class="cls-6" width="32.3" height="9.2"/><rect class="cls-6" y="23.1" width="32.3" height="9.2"/><rect class="cls-6" y="55" width="32.3" height="9.2"/><rect class="cls-6" x="37.7" y="59" width="11.1" height="2.1"/><rect class="cls-6" x="37.7" y="65" width="11.1" height="16.1"/><rect class="cls-6" x="37.2" y="208" width="11.6" height="25.4"/><rect class="cls-6" y="182.8" width="31.4" height="11.2"/><rect class="cls-6" y="402.1" width="31.6" height="12.2"/><rect class="cls-6" x="0.9" y="499.4" width="30.5" height="8.5"/><rect class="cls-6" x="0.9" y="543.1" width="31.7" height="11.4"/><rect class="cls-6" x="37.5" y="569.7" width="11.9" height="26.7"/><rect class="cls-6" x="37.5" y="733.6" width="11.9" height="25"/><rect class="cls-7" x="19.8" y="159.5" width="1.7" height="14.6"/><rect class="cls-7" x="7.5" y="167.4" width="3.6" height="3.6"/><rect class="cls-7" x="1.6" y="235.6" width="1.4" height="31.9"/><rect class="cls-7" x="29.7" y="256.6" width="1.9" height="32.5"/><polygon class="cls-7" points="9.1 298.5 11.8 298.5 11.8 311.8 13.4 311.8 13.4 298.5 16.3 298.5 16.3 289.2 9.1 289.2 9.1 298.5"/><rect class="cls-7" x="4" y="292.9" width="2.2" height="14.1"/><rect class="cls-7" x="37.2" y="374.6" width="11.6" height="2.7"/><rect class="cls-7" x="28.7" y="619" width="2.9" height="32.7"/><rect class="cls-7" x="37.5" y="635.4" width="11.9" height="2.7"/><rect class="cls-7" x="37.5" y="642.4" width="11.9" height="2.7"/><rect class="cls-7" x="7.1" y="623.9" width="2.9" height="2.9"/><rect class="cls-7" x="11.7" y="642.4" width="1.7" height="15.1"/><rect class="cls-7" x="4.7" y="638.1" width="1.4" height="14.8"/><rect class="cls-7" x="1.8" y="640.6" width="1.4" height="33.7"/><rect class="cls-7" x="37.5" y="719.7" width="11.9" height="3.2"/><rect class="cls-7" x="37.5" y="742.3" width="11.9" height="2.4"/></svg>