<svg id="图层_1" data-name="图层 1" xmlns="http://www.w3.org/2000/svg" viewBox="0 0 226.77 226.8"><defs><style>.cls-1{opacity:0.8;}.cls-2{fill:#b8d0ff;}</style></defs><title>未标题-10</title><g class="cls-1"><path class="cls-2" d="M192.52,54.3a98.32,98.32,0,0,0-62.88-37.71l.15-1A99.23,99.23,0,0,1,193.31,53.7Z" transform="translate(-0.11 0)"/><path class="cls-2" d="M148.69,207.87l-.35-.94A99.26,99.26,0,0,0,209,141l1,.28A100.34,100.34,0,0,1,148.69,207.87Z" transform="translate(-0.11 0)"/><path class="cls-2" d="M98.34,212.89a100.37,100.37,0,0,1-82.11-77.18l1-.22a99.39,99.39,0,0,0,81.29,76.42Z" transform="translate(-0.11 0)"/><path class="cls-2" d="M164.43,35.08A93.22,93.22,0,0,0,113.81,20.3c-.57,0-1.17,0-1.77.05s-1.3,0-1.93,0v-4c.58,0,1.18,0,1.77,0s1.31-.05,1.93-.05A97.2,97.2,0,0,1,166.6,31.72Z" transform="translate(-0.11 0)"/><path class="cls-2" d="M211.31,124.38l-4-.36c.34-3.69.49-6.81.49-9.82a94.9,94.9,0,0,0-10.67-43.48l3.55-1.84a98.84,98.84,0,0,1,11.12,45.32C211.81,117.33,211.65,120.57,211.31,124.38Z" transform="translate(-0.11 0)"/><path class="cls-2" d="M118.92,212.1l-.21-4a93.89,93.89,0,0,0,70.41-37.6l3.19,2.4A97.86,97.86,0,0,1,118.92,212.1Z" transform="translate(-0.11 0)"/><path class="cls-2" d="M29.09,163.31A97.74,97.74,0,0,1,15.92,114.2,95.54,95.54,0,0,1,23.27,77L27,78.57a91.65,91.65,0,0,0-7,35.63,93.8,93.8,0,0,0,12.62,47.1Z" transform="translate(-0.11 0)"/><path class="cls-2" d="M113.81,223.3h-1.25l.11-9c1.91,0,3.84,0,5.75-.09l.4,9C117.16,223.26,115.48,223.3,113.81,223.3Zm-7.49-.25c-2.07-.14-4.17-.34-6.23-.6l1.13-8.93c1.88.23,3.8.42,5.71.55Zm18.74-.32-.92-8.95c1.9-.2,3.82-.45,5.69-.75l1.43,8.89C129.21,222.25,127.13,222.52,125.06,222.73Zm-31.15-1.24c-2-.38-4.11-.82-6.12-1.32l2.14-8.74c1.85.46,3.74.86,5.61,1.21Zm43.5-.74L135.47,212c1.87-.41,3.75-.88,5.57-1.39l2.43,8.66C141.49,219.79,139.45,220.3,137.41,220.75Zm-55.65-2.24c-2-.61-4-1.29-5.93-2L79,208.06c1.78.67,3.61,1.29,5.44,1.85Zm67.68-1.14-2.93-8.51c1.8-.62,3.61-1.3,5.37-2l3.41,8.32C153.37,216,151.41,216.69,149.44,217.37ZM70,214.15c-1.89-.83-3.79-1.73-5.65-2.68l4.08-8c1.71.87,3.46,1.7,5.19,2.46Zm91-1.53-3.88-8.11c1.71-.82,3.42-1.71,5.09-2.63l4.35,7.88C164.74,210.76,162.87,211.73,161,212.62ZM58.88,208.47c-1.79-1.05-3.58-2.16-5.31-3.31l5-7.5c1.6,1.06,3.24,2.08,4.88,3ZM172,206.58,167.16,199c1.61-1,3.22-2.1,4.76-3.2l5.23,7.33C175.46,204.3,173.71,205.47,172,206.58Zm-123.49-5c-1.67-1.24-3.31-2.55-4.9-3.89l5.8-6.88c1.46,1.23,3,2.43,4.49,3.57Zm133.67-2.22-5.63-7c1.48-1.19,2.95-2.44,4.38-3.72l6,6.69C185.35,196.67,183.75,198,182.13,199.33ZM38.89,193.5c-1.51-1.43-3-2.92-4.42-4.43L41,182.89c1.31,1.39,2.68,2.75,4.06,4.06ZM191.43,191l-6.4-6.33c1.34-1.35,2.66-2.77,3.92-4.2l6.75,6C194.32,188,192.88,189.49,191.43,191ZM30.31,184.41c-1.34-1.59-2.65-3.24-3.9-4.9l7.2-5.4c1.15,1.53,2.35,3,3.58,4.5Zm169.39-2.82L192.63,176c1.18-1.49,2.33-3,3.42-4.61l7.38,5.15C202.24,178.27,201,180,199.7,181.59ZM22.81,174.41l-.36-.54L30,168.93l.32.49Zm184.06-3.08-7.67-4.72c1-1.63,2-3.3,2.87-5l7.93,4.28C209,167.73,208,169.56,206.87,171.33Zm5.94-11-8.16-3.82c.81-1.72,1.58-3.49,2.28-5.27l8.36,3.34C214.52,156.5,213.69,158.44,212.81,160.32Z" transform="translate(-0.11 0)"/><path class="cls-2" d="M25.67,66.65l-7.91-4.29c1-1.84,2-3.66,3.14-5.42l7.65,4.74C27.55,63.29,26.58,65,25.67,66.65Zm6-9.76-7.36-5.17c1.19-1.7,2.44-3.39,3.73-5l7.06,5.58C34,53.78,32.81,55.33,31.71,56.89Zm7.12-9-6.73-6c1.37-1.55,2.81-3.08,4.28-4.56l6.38,6.34C41.41,45.05,40.09,46.46,38.83,47.88Zm8.1-8.14-6-6.7c1.54-1.38,3.15-2.74,4.77-4l5.63,7C49.81,37.22,48.34,38.47,46.93,39.74Zm9-7.17-5.21-7.34c1.69-1.2,3.44-2.37,5.2-3.47l4.79,7.62C59.05,30.39,57.44,31.47,55.89,32.57Zm9.72-6.1-4.34-7.89c1.82-1,3.69-2,5.57-2.86l3.88,8.13C69,24.67,67.28,25.55,65.61,26.47ZM76,21.52l-3.41-8.33c1.93-.79,3.9-1.53,5.86-2.2l2.92,8.51C79.54,20.12,77.74,20.8,76,21.52ZM86.82,17.8,84.39,9.13c2-.56,4-1.07,6.08-1.51l1.91,8.79C90.52,16.82,88.65,17.28,86.82,17.8ZM98,15.35,96.61,6.46c1.51-.24,3-.45,4.59-.63l1,8.94C100.82,14.93,99.41,15.13,98,15.35Z" transform="translate(-0.11 0)"/><path class="cls-2" d="M114.35,226.8v-1c2,0,4-.08,6-.2l.06,1C118.37,226.72,116.35,226.78,114.35,226.8Zm-6-.12c-2-.09-4-.23-6-.42l.1-1c2,.19,4,.33,6,.43Zm18-.6-.11-1c2-.23,4-.5,5.91-.83l.17,1C130.37,225.58,128.36,225.86,126.37,226.08Zm-30-.57c-2-.3-4-.66-5.93-1.06l.21-1c1.94.4,3.92.75,5.87,1.05Zm41.91-1.41-.22-1c1.95-.43,3.89-.92,5.79-1.45l.27,1C142.18,223.17,140.21,223.66,138.25,224.1Zm-53.7-1c-1.93-.51-3.88-1.08-5.78-1.69l.3-.95c1.89.6,3.82,1.17,5.73,1.67Zm65.3-2.21-.32-1c1.88-.64,3.76-1.33,5.6-2.07l.37.93C153.65,219.52,151.74,220.22,149.85,220.86Zm-76.78-1.48c-1.87-.72-3.75-1.49-5.58-2.31l.41-.91c1.81.81,3.67,1.58,5.53,2.28Zm88-3-.42-.91c1.79-.83,3.58-1.72,5.34-2.64l.47.88C164.65,214.67,162.83,215.56,161,216.4Zm-99-1.93c-1.8-.91-3.58-1.88-5.3-2.88l.5-.86c1.71,1,3.48,2,5.25,2.85Zm109.61-3.69-.51-.86c1.69-1,3.39-2.09,5-3.2l.56.83C175.08,208.67,173.37,209.76,171.66,210.78Zm-120-2.35c-1.68-1.09-3.34-2.25-5-3.43l.59-.8c1.6,1.16,3.26,2.31,4.92,3.39Zm130-4.37-.61-.8c1.58-1.19,3.15-2.43,4.68-3.71l.64.76C184.82,201.6,183.24,202.86,181.65,204.06ZM41.88,201.32c-1.55-1.27-3.09-2.59-4.56-3.93l.67-.74c1.46,1.32,3,2.64,4.53,3.89Zm149-5-.68-.73c1.45-1.36,2.88-2.77,4.25-4.19l.72.7C193.78,193.53,192.34,195,190.87,196.32ZM33,193.22c-1.41-1.42-2.79-2.9-4.12-4.39l.75-.66c1.31,1.47,2.69,2.94,4.09,4.35Zm166.27-5.57-.76-.65c1.31-1.51,2.58-3.06,3.8-4.62l.79.62C201.83,184.57,200.54,186.13,199.23,187.65ZM25,184.23c-1.25-1.56-2.47-3.17-3.64-4.79l.82-.59c1.15,1.61,2.36,3.21,3.6,4.76Zm181.68-6.09-.82-.57c1.14-1.64,2.24-3.32,3.28-5l.85.52C208.89,174.8,207.78,176.49,206.63,178.14ZM17.94,174.45c-1.08-1.67-2.12-3.41-3.11-5.15l.87-.49c1,1.72,2,3.44,3.08,5.1ZM213,167.9l-.88-.48c1-1.75,1.88-3.54,2.74-5.32l.9.43C214.88,164.33,214,166.14,213,167.9ZM12,164c-.89-1.78-1.75-3.61-2.54-5.45l.91-.4c.79,1.83,1.64,3.64,2.52,5.41Zm206.22-7-.93-.39c.77-1.83,1.49-3.7,2.16-5.58l.94.34C219.72,153.29,219,155.18,218.22,157ZM7.21,153c-.7-1.88-1.36-3.8-1.95-5.7l1-.3c.59,1.89,1.24,3.79,1.94,5.65Zm215.05-7.3-1-.29c.56-1.89,1.08-3.83,1.54-5.76l1,.23C223.35,141.8,222.83,143.75,222.26,145.67ZM3.62,141.47c-.5-1.93-.94-3.91-1.33-5.88l1-.19c.38,1.95.83,3.91,1.31,5.82ZM225.06,134l-1-.18c.36-1.93.67-3.92.92-5.89l1,.12C225.73,130,225.42,132,225.06,134ZM1.27,129.66c-.28-2-.52-4-.7-6l1-.08c.18,2,.41,4,.69,5.92ZM226.59,122l-1-.07c.15-2,.25-4,.3-6l1,0C226.84,118,226.74,120,226.59,122ZM.19,117.66c0-1.41-.08-2.85-.08-4.26,0-.59,0-1.18,0-1.76h1c0,.58,0,1.17,0,1.75,0,1.4,0,2.82.08,4.23ZM225.86,110c-.06-2-.17-4-.33-6l1-.08c.16,2,.27,4,.33,6ZM1.38,105.69l-1-.07c.13-2,.32-4,.56-6l1,.12C1.7,101.71,1.51,103.71,1.38,105.69Zm223.5-7.59c-.27-2-.59-3.95-1-5.89l1-.19c.38,2,.7,4,1,6ZM2.81,93.84l-1-.17c.34-2,.75-4,1.2-5.91L4,88C3.55,89.91,3.15,91.88,2.81,93.84Zm219.83-7.46c-.47-1.92-1-3.86-1.58-5.76l1-.29c.58,1.92,1.12,3.87,1.6,5.81ZM5.5,82.21l-1-.28c.55-1.92,1.17-3.85,1.82-5.74l.95.33C6.66,78.39,6.05,80.3,5.5,82.21ZM219.17,75c-.68-1.87-1.42-3.73-2.19-5.54l.92-.4c.78,1.83,1.52,3.72,2.21,5.6Zm-209.75-4-.93-.38c.76-1.84,1.58-3.7,2.43-5.52l.91.43C11,67.25,10.17,69.09,9.42,70.92ZM214.5,64c-.87-1.78-1.8-3.56-2.76-5.29l.87-.48c1,1.74,1.91,3.53,2.79,5.33Zm-200-3.89-.88-.48c.95-1.76,2-3.52,3-5.22l.85.52C16.47,56.61,15.47,58.36,14.53,60.11Zm194.16-6.52c-1.05-1.68-2.17-3.35-3.31-5l.82-.57c1.15,1.62,2.27,3.31,3.34,5ZM20.75,49.91l-.82-.57c1.12-1.64,2.32-3.28,3.54-4.87l.79.6C23.05,46.65,21.87,48.28,20.75,49.91Zm181.06-6.07c-1.23-1.56-2.51-3.1-3.82-4.59l.75-.66c1.32,1.5,2.62,3.06,3.86,4.63ZM28,40.43l-.76-.65c1.3-1.52,2.66-3,4-4.48L32,36C30.65,37.43,29.31,38.92,28,40.43Zm165.91-5.56c-1.38-1.42-2.83-2.82-4.28-4.16l.68-.73c1.46,1.35,2.92,2.76,4.32,4.19ZM36.24,31.77l-.68-.72c1.45-1.38,3-2.73,4.48-4l.65.77C39.18,29.07,37.68,30.41,36.24,31.77Zm148.91-5c-1.53-1.27-3.11-2.51-4.7-3.68l.6-.81c1.6,1.19,3.19,2.44,4.74,3.72ZM45.33,24l-.61-.8C46.31,22,48,20.84,49.6,19.71l.57.83C48.53,21.66,46.91,22.83,45.33,24Zm130.23-4.38c-1.65-1.09-3.35-2.16-5.07-3.17l.51-.86c1.73,1,3.45,2.09,5.11,3.2ZM55.18,17.3l-.52-.85c1.7-1,3.46-2,5.22-3l.47.88C58.61,15.28,56.87,16.28,55.18,17.3Zm110.08-3.71c-1.77-.92-3.58-1.79-5.38-2.61l.42-.91c1.81.82,3.64,1.71,5.42,2.64ZM65.68,11.66l-.43-.91c1.81-.85,3.67-1.66,5.51-2.41l.38.92C69.31,10,67.47,10.81,65.68,11.66Zm88.69-3c-1.85-.73-3.74-1.41-5.63-2l.32-1c1.9.63,3.81,1.32,5.68,2.05ZM76.72,7.16l-.32-.94C78.28,5.56,80.22,5,82.14,4.4l.28,1C80.51,5.91,78.59,6.51,76.72,7.16ZM143,4.92c-1.92-.52-3.87-1-5.81-1.41l.21-1c2,.42,3.93.9,5.86,1.42ZM88.2,3.86l-.23-1c2-.45,3.93-.85,5.91-1.19l.17,1C92.09,3,90.12,3.42,88.2,3.86Zm43.15-1.45c-1.95-.31-3.94-.58-5.92-.78l.11-1c2,.21,4,.48,6,.79ZM100,1.81l-.12-1c2-.24,4-.43,6-.56l.07,1C103.92,1.39,101.92,1.58,100,1.81Zm19.53-.65C117,1,114.4,1,111.87,1l0-1c2.55,0,5.14,0,7.69.15Z" transform="translate(-0.11 0)"/></g></svg>