<svg id="图层_1" data-name="图层 1" xmlns="http://www.w3.org/2000/svg" xmlns:xlink="http://www.w3.org/1999/xlink" viewBox="0 0 329.05 588.83"><defs><style>.cls-1{fill:#0a0e17;}.cls-2{fill:#26293e;}.cls-3,.cls-6,.cls-7,.cls-8{opacity:0.4;}.cls-4,.cls-6{fill:#111924;}.cls-5,.cls-7{fill:#4d4c5c;}.cls-6,.cls-7,.cls-8{isolation:isolate;}.cls-8{fill:url(#未命名的渐变_10);}.cls-9{opacity:0.7;}.cls-10{fill:#333a44;}.cls-11{fill:#1b1a20;}</style><linearGradient id="未命名的渐变_10" x1="292.05" y1="292.75" x2="328.05" y2="292.75" gradientTransform="matrix(1, 0, 0, -1, 0.05, 590.3)" gradientUnits="userSpaceOnUse"><stop offset="0" stop-color="#3649e9" stop-opacity="0.4"/><stop offset="0.2" stop-color="#354de8" stop-opacity="0.38"/><stop offset="0.41" stop-color="#325ae5" stop-opacity="0.33"/><stop offset="0.63" stop-color="#2d70e0" stop-opacity="0.24"/><stop offset="0.84" stop-color="#268eda" stop-opacity="0.11"/><stop offset="1" stop-color="#20a9d4" stop-opacity="0"/></linearGradient></defs><title>左下_画板 1</title><polygon class="cls-1" points="0.1 6.3 292.1 6.3 328.1 21.35 328.1 569.8 293.1 588.8 0.1 588.8 0.1 6.3"/><polygon class="cls-2" points="28.1 569.8 0.1 588.8 293.1 588.8 328.1 569.8 28.1 569.8"/><g class="cls-3"><rect class="cls-4" x="53.9" y="6.3" width="1" height="582.53"/><rect class="cls-4" x="33.1" y="6.3" width="1" height="582.53"/><rect class="cls-4" x="12.4" y="6.3" width="1" height="582.53"/><polygon class="cls-4" points="323.6 19.46 324.6 19.88 324.6 571.66 323.6 572.2 323.6 19.46"/><polygon class="cls-4" points="302.9 10.81 303.9 11.23 303.9 582.94 302.9 583.5 302.9 10.81"/><rect class="cls-4" x="282.1" y="6.3" width="1" height="582.53"/><rect class="cls-4" x="261.4" y="6.3" width="1" height="582.53"/><rect class="cls-4" x="240.6" y="6.3" width="1" height="582.53"/><rect class="cls-4" x="219.9" y="6.3" width="1" height="582.53"/><rect class="cls-4" x="199.1" y="6.3" width="1" height="582.53"/><rect class="cls-4" x="178.4" y="6.3" width="1" height="582.53"/><rect class="cls-4" x="157.6" y="6.3" width="1" height="582.53"/><rect class="cls-4" x="136.9" y="6.3" width="1" height="582.53"/><rect class="cls-4" x="116.1" y="6.3" width="1" height="582.53"/><rect class="cls-4" x="95.4" y="6.3" width="1" height="582.53"/><rect class="cls-4" x="74.6" y="6.3" width="1" height="582.53"/></g><g class="cls-3"><rect class="cls-5" x="53.9" y="569.8" width="1" height="19"/><rect class="cls-5" x="33.1" y="569.8" width="1" height="19"/><polygon class="cls-5" points="12.4 580.46 12.4 588.8 13.4 588.8 13.4 579.76 12.4 580.46"/><polygon class="cls-5" points="324.6 569.8 323.6 569.8 323.6 572.2 324.6 571.7 324.6 569.8"/><polygon class="cls-5" points="302.9 569.8 302.9 583.5 303.9 583 303.9 569.8 302.9 569.8"/><rect class="cls-5" x="282.1" y="569.8" width="1" height="19"/><rect class="cls-5" x="261.4" y="569.8" width="1" height="19"/><rect class="cls-5" x="240.6" y="569.8" width="1" height="19"/><rect class="cls-5" x="219.9" y="569.8" width="1" height="19"/><rect class="cls-5" x="199.1" y="569.8" width="1" height="19"/><rect class="cls-5" x="178.4" y="569.8" width="1" height="19"/><rect class="cls-5" x="157.6" y="569.8" width="1" height="19"/><rect class="cls-5" x="136.9" y="569.8" width="1" height="19"/><rect class="cls-5" x="116.1" y="569.8" width="1" height="19"/><rect class="cls-5" x="95.4" y="569.8" width="1" height="19"/><rect class="cls-5" x="74.6" y="569.8" width="1" height="19"/></g><rect class="cls-4" y="36.2" width="324.1" height="1"/><polygon class="cls-4" points="0 15.4 313.87 15.4 316.26 16.4 0 16.4 0 15.4"/><rect class="cls-4" y="305.9" width="324.1" height="1"/><rect class="cls-4" y="285.2" width="324.1" height="1"/><rect class="cls-4" y="264.4" width="324.1" height="1"/><rect class="cls-4" y="243.7" width="324.1" height="1"/><rect class="cls-4" y="222.9" width="324.1" height="1"/><rect class="cls-4" y="202.2" width="324.1" height="1"/><rect class="cls-4" y="181.4" width="324.1" height="1"/><rect class="cls-4" y="160.7" width="324.1" height="1"/><rect class="cls-4" y="139.9" width="324.1" height="1"/><rect class="cls-4" y="119.2" width="324.1" height="1"/><rect class="cls-4" y="98.4" width="324.1" height="1"/><rect class="cls-4" y="77.7" width="324.1" height="1"/><rect class="cls-4" y="56.9" width="324.1" height="1"/><rect class="cls-6" y="368.2" width="324.1" height="1"/><rect class="cls-6" y="347.4" width="324.1" height="1"/><rect class="cls-6" y="326.7" width="324.1" height="1"/><polygon class="cls-7" points="17.93 576.7 315.39 576.7 317.23 575.7 19.43 575.7 17.93 576.7"/><rect class="cls-6" y="554.9" width="324.1" height="1"/><rect class="cls-6" y="534.2" width="324.1" height="1"/><rect class="cls-6" y="513.4" width="324.1" height="1"/><rect class="cls-6" y="492.7" width="324.1" height="1"/><rect class="cls-6" y="471.9" width="324.1" height="1"/><rect class="cls-6" y="451.2" width="324.1" height="1"/><rect class="cls-6" y="430.4" width="324.1" height="1"/><rect class="cls-6" y="409.7" width="324.1" height="1"/><rect class="cls-6" y="388.9" width="324.1" height="1"/><polygon class="cls-8" points="293.1 588.8 292.1 6.3 292.1 6.3 328.1 21.35 328.1 569.8 293.1 588.8"/><g class="cls-9"><rect class="cls-10" x="11.85" y="14.8" width="2" height="2"/><rect class="cls-10" x="32.55" y="14.8" width="2" height="2"/><rect class="cls-10" x="53.35" y="14.8" width="2" height="2"/><rect class="cls-10" x="11.85" y="35.5" width="2" height="2"/><rect class="cls-10" x="32.55" y="35.5" width="2" height="2"/><rect class="cls-10" x="53.35" y="35.5" width="2" height="2"/><rect class="cls-10" x="11.85" y="56.3" width="2" height="2"/><rect class="cls-10" x="32.55" y="56.3" width="2" height="2"/><rect class="cls-10" x="53.35" y="56.3" width="2" height="2"/><rect class="cls-10" x="11.85" y="77" width="2" height="2"/><rect class="cls-10" x="32.55" y="77" width="2" height="2"/><rect class="cls-10" x="53.35" y="77" width="2" height="2"/><rect class="cls-10" x="11.85" y="97.8" width="2" height="2"/><rect class="cls-10" x="32.55" y="97.8" width="2" height="2"/><rect class="cls-10" x="53.35" y="97.8" width="2" height="2"/><rect class="cls-10" x="11.85" y="118.5" width="2" height="2"/><rect class="cls-10" x="32.55" y="118.5" width="2" height="2"/><rect class="cls-10" x="53.35" y="118.5" width="2" height="2"/><rect class="cls-10" x="11.85" y="139.3" width="2" height="2"/><rect class="cls-10" x="32.55" y="139.3" width="2" height="2"/><rect class="cls-10" x="53.35" y="139.3" width="2" height="2"/><rect class="cls-10" x="11.85" y="160" width="2" height="2"/><rect class="cls-10" x="32.55" y="160" width="2" height="2"/><rect class="cls-10" x="53.35" y="160" width="2" height="2"/><rect class="cls-10" x="11.85" y="180.8" width="2" height="2"/><rect class="cls-10" x="32.55" y="180.8" width="2" height="2"/><rect class="cls-10" x="53.35" y="180.8" width="2" height="2"/><rect class="cls-10" x="11.85" y="201.5" width="2" height="2"/><rect class="cls-10" x="32.55" y="201.5" width="2" height="2"/><rect class="cls-10" x="53.35" y="201.5" width="2" height="2"/><rect class="cls-10" x="11.85" y="222.3" width="2" height="2"/><rect class="cls-10" x="32.55" y="222.3" width="2" height="2"/><rect class="cls-10" x="53.35" y="222.3" width="2" height="2"/><rect class="cls-10" x="11.85" y="243" width="2" height="2"/><rect class="cls-10" x="32.55" y="243" width="2" height="2"/><rect class="cls-10" x="53.35" y="243" width="2" height="2"/><rect class="cls-10" x="11.85" y="263.8" width="2" height="2"/><rect class="cls-10" x="32.55" y="263.8" width="2" height="2"/><rect class="cls-10" x="53.35" y="263.8" width="2" height="2"/><rect class="cls-10" x="11.85" y="284.5" width="2" height="2"/><rect class="cls-10" x="32.55" y="284.5" width="2" height="2"/><rect class="cls-10" x="53.35" y="284.5" width="2" height="2"/><rect class="cls-10" x="11.85" y="305.3" width="2" height="2"/><rect class="cls-10" x="32.55" y="305.3" width="2" height="2"/><rect class="cls-10" x="53.35" y="305.3" width="2" height="2"/><rect class="cls-10" x="11.85" y="326" width="2" height="2"/><rect class="cls-10" x="32.55" y="326" width="2" height="2"/><rect class="cls-10" x="53.35" y="326" width="2" height="2"/><rect class="cls-10" x="11.85" y="346.8" width="2" height="2"/><rect class="cls-10" x="32.55" y="346.8" width="2" height="2"/><rect class="cls-10" x="53.35" y="346.8" width="2" height="2"/><rect class="cls-10" x="11.85" y="367.5" width="2" height="2"/><rect class="cls-10" x="32.55" y="367.5" width="2" height="2"/><rect class="cls-10" x="53.35" y="367.5" width="2" height="2"/><rect class="cls-10" x="11.85" y="388.3" width="2" height="2"/><rect class="cls-10" x="32.55" y="388.3" width="2" height="2"/><rect class="cls-10" x="53.35" y="388.3" width="2" height="2"/><rect class="cls-10" x="11.85" y="409" width="2" height="2"/><rect class="cls-10" x="32.55" y="409" width="2" height="2"/><rect class="cls-10" x="53.35" y="409" width="2" height="2"/><rect class="cls-10" x="11.85" y="429.8" width="2" height="2"/><rect class="cls-10" x="32.55" y="429.8" width="2" height="2"/><rect class="cls-10" x="53.35" y="429.8" width="2" height="2"/><rect class="cls-10" x="11.85" y="450.5" width="2" height="2"/><rect class="cls-10" x="32.55" y="450.5" width="2" height="2"/><rect class="cls-10" x="53.35" y="450.5" width="2" height="2"/><rect class="cls-10" x="11.85" y="471.3" width="2" height="2"/><rect class="cls-10" x="32.55" y="471.3" width="2" height="2"/><rect class="cls-10" x="53.35" y="471.3" width="2" height="2"/><rect class="cls-10" x="11.85" y="492" width="2" height="2"/><rect class="cls-10" x="32.55" y="492" width="2" height="2"/><rect class="cls-10" x="53.35" y="492" width="2" height="2"/><rect class="cls-10" x="11.85" y="512.8" width="2" height="2"/><rect class="cls-10" x="32.55" y="512.8" width="2" height="2"/><rect class="cls-10" x="53.35" y="512.8" width="2" height="2"/><rect class="cls-10" x="11.85" y="533.5" width="2" height="2"/><rect class="cls-10" x="32.55" y="533.5" width="2" height="2"/><rect class="cls-10" x="53.35" y="533.5" width="2" height="2"/><rect class="cls-10" x="11.85" y="554.3" width="2" height="2"/><rect class="cls-10" x="32.55" y="554.3" width="2" height="2"/><rect class="cls-10" x="53.35" y="554.3" width="2" height="2"/><rect class="cls-10" x="11.85" y="575" width="2" height="2"/><rect class="cls-5" x="32.55" y="575" width="2" height="2"/><rect class="cls-5" x="53.35" y="575" width="2" height="2"/><line class="cls-11" x1="74.55" x2="75.55"/><rect class="cls-10" x="94.85" y="14.8" width="2" height="2"/><rect class="cls-10" x="74.05" y="14.8" width="2" height="2"/><rect class="cls-10" x="115.55" y="14.8" width="2" height="2"/><rect class="cls-10" x="136.35" y="14.8" width="2" height="2"/><rect class="cls-10" x="94.85" y="35.5" width="2" height="2"/><rect class="cls-10" x="74.05" y="35.5" width="2" height="2"/><rect class="cls-10" x="115.55" y="35.5" width="2" height="2"/><rect class="cls-10" x="136.35" y="35.5" width="2" height="2"/><rect class="cls-10" x="94.85" y="56.3" width="2" height="2"/><rect class="cls-10" x="74.05" y="56.3" width="2" height="2"/><rect class="cls-10" x="115.55" y="56.3" width="2" height="2"/><rect class="cls-10" x="136.35" y="56.3" width="2" height="2"/><polygon class="cls-10" points="75.55 73 74.55 73 74.55 77.5 70.05 77.5 70.05 78.5 74.55 78.5 74.55 83 75.55 83 75.55 78.5 80.05 78.5 80.05 77.5 75.55 77.5 75.55 73"/><rect class="cls-10" x="94.85" y="77" width="2" height="2"/><rect class="cls-10" x="115.55" y="77" width="2" height="2"/><rect class="cls-10" x="136.35" y="77" width="2" height="2"/><rect class="cls-10" x="94.85" y="97.8" width="2" height="2"/><rect class="cls-10" x="74.05" y="97.8" width="2" height="2"/><rect class="cls-10" x="115.55" y="97.8" width="2" height="2"/><rect class="cls-10" x="136.35" y="97.8" width="2" height="2"/><rect class="cls-10" x="94.85" y="118.5" width="2" height="2"/><rect class="cls-10" x="74.05" y="118.5" width="2" height="2"/><rect class="cls-10" x="115.55" y="118.5" width="2" height="2"/><rect class="cls-10" x="136.35" y="118.5" width="2" height="2"/><rect class="cls-10" x="94.85" y="139.3" width="2" height="2"/><rect class="cls-10" x="74.05" y="139.3" width="2" height="2"/><rect class="cls-10" x="115.55" y="139.3" width="2" height="2"/><rect class="cls-10" x="136.35" y="139.3" width="2" height="2"/><polygon class="cls-10" points="75.55 156 74.55 156 74.55 160.5 70.05 160.5 70.05 161.5 74.55 161.5 74.55 166 75.55 166 75.55 161.5 80.05 161.5 80.05 160.5 75.55 160.5 75.55 156"/><rect class="cls-10" x="94.85" y="160" width="2" height="2"/><rect class="cls-10" x="115.55" y="160" width="2" height="2"/><rect class="cls-10" x="136.35" y="160" width="2" height="2"/><rect class="cls-10" x="94.85" y="180.8" width="2" height="2"/><rect class="cls-10" x="74.05" y="180.8" width="2" height="2"/><rect class="cls-10" x="115.55" y="180.8" width="2" height="2"/><rect class="cls-10" x="136.35" y="180.8" width="2" height="2"/><rect class="cls-10" x="94.85" y="201.5" width="2" height="2"/><rect class="cls-10" x="74.05" y="201.5" width="2" height="2"/><rect class="cls-10" x="115.55" y="201.5" width="2" height="2"/><rect class="cls-10" x="136.35" y="201.5" width="2" height="2"/><rect class="cls-10" x="94.85" y="222.3" width="2" height="2"/><rect class="cls-10" x="74.05" y="222.3" width="2" height="2"/><rect class="cls-10" x="115.55" y="222.3" width="2" height="2"/><rect class="cls-10" x="136.35" y="222.3" width="2" height="2"/><polygon class="cls-10" points="75.55 239 74.55 239 74.55 243.5 70.05 243.5 70.05 244.5 74.55 244.5 74.55 249 75.55 249 75.55 244.5 80.05 244.5 80.05 243.5 75.55 243.5 75.55 239"/><rect class="cls-10" x="94.85" y="243" width="2" height="2"/><rect class="cls-10" x="115.55" y="243" width="2" height="2"/><rect class="cls-10" x="136.35" y="243" width="2" height="2"/><rect class="cls-10" x="94.85" y="263.8" width="2" height="2"/><rect class="cls-10" x="74.05" y="263.8" width="2" height="2"/><rect class="cls-10" x="115.55" y="263.8" width="2" height="2"/><rect class="cls-10" x="136.35" y="263.8" width="2" height="2"/><rect class="cls-10" x="94.85" y="284.5" width="2" height="2"/><rect class="cls-10" x="74.05" y="284.5" width="2" height="2"/><rect class="cls-10" x="115.55" y="284.5" width="2" height="2"/><rect class="cls-10" x="136.35" y="284.5" width="2" height="2"/><rect class="cls-10" x="94.85" y="305.3" width="2" height="2"/><rect class="cls-10" x="74.05" y="305.3" width="2" height="2"/><rect class="cls-10" x="115.55" y="305.3" width="2" height="2"/><rect class="cls-10" x="136.35" y="305.3" width="2" height="2"/><polygon class="cls-10" points="75.55 322 74.55 322 74.55 326.5 70.05 326.5 70.05 327.5 74.55 327.5 74.55 332 75.55 332 75.55 327.5 80.05 327.5 80.05 326.5 75.55 326.5 75.55 322"/><rect class="cls-10" x="94.85" y="326" width="2" height="2"/><rect class="cls-10" x="115.55" y="326" width="2" height="2"/><rect class="cls-10" x="136.35" y="326" width="2" height="2"/><rect class="cls-10" x="94.85" y="346.8" width="2" height="2"/><rect class="cls-10" x="74.05" y="346.8" width="2" height="2"/><rect class="cls-10" x="115.55" y="346.8" width="2" height="2"/><rect class="cls-10" x="136.35" y="346.8" width="2" height="2"/><rect class="cls-10" x="94.85" y="367.5" width="2" height="2"/><rect class="cls-10" x="74.05" y="367.5" width="2" height="2"/><rect class="cls-10" x="115.55" y="367.5" width="2" height="2"/><rect class="cls-10" x="136.35" y="367.5" width="2" height="2"/><rect class="cls-10" x="94.85" y="388.3" width="2" height="2"/><rect class="cls-10" x="74.05" y="388.3" width="2" height="2"/><rect class="cls-10" x="115.55" y="388.3" width="2" height="2"/><rect class="cls-10" x="136.35" y="388.3" width="2" height="2"/><polygon class="cls-10" points="75.55 405 74.55 405 74.55 409.5 70.05 409.5 70.05 410.5 74.55 410.5 74.55 415 75.55 415 75.55 410.5 80.05 410.5 80.05 409.5 75.55 409.5 75.55 405"/><rect class="cls-10" x="94.85" y="409" width="2" height="2"/><rect class="cls-10" x="115.55" y="409" width="2" height="2"/><rect class="cls-10" x="136.35" y="409" width="2" height="2"/><rect class="cls-10" x="94.85" y="429.8" width="2" height="2"/><rect class="cls-10" x="74.05" y="429.8" width="2" height="2"/><rect class="cls-10" x="115.55" y="429.8" width="2" height="2"/><rect class="cls-10" x="136.35" y="429.8" width="2" height="2"/><rect class="cls-10" x="94.85" y="450.5" width="2" height="2"/><rect class="cls-10" x="74.05" y="450.5" width="2" height="2"/><rect class="cls-10" x="115.55" y="450.5" width="2" height="2"/><rect class="cls-10" x="136.35" y="450.5" width="2" height="2"/><rect class="cls-10" x="94.85" y="471.3" width="2" height="2"/><rect class="cls-10" x="74.05" y="471.3" width="2" height="2"/><rect class="cls-10" x="115.55" y="471.3" width="2" height="2"/><rect class="cls-10" x="136.35" y="471.3" width="2" height="2"/><polygon class="cls-10" points="75.55 488 74.55 488 74.55 492.5 70.05 492.5 70.05 493.5 74.55 493.5 74.55 498 75.55 498 75.55 493.5 80.05 493.5 80.05 492.5 75.55 492.5 75.55 488"/><rect class="cls-10" x="94.85" y="492" width="2" height="2"/><rect class="cls-10" x="115.55" y="492" width="2" height="2"/><rect class="cls-10" x="136.35" y="492" width="2" height="2"/><rect class="cls-10" x="94.85" y="512.8" width="2" height="2"/><rect class="cls-10" x="74.05" y="512.8" width="2" height="2"/><rect class="cls-10" x="115.55" y="512.8" width="2" height="2"/><rect class="cls-10" x="136.35" y="512.8" width="2" height="2"/><rect class="cls-10" x="94.85" y="533.5" width="2" height="2"/><rect class="cls-10" x="74.05" y="533.5" width="2" height="2"/><rect class="cls-10" x="115.55" y="533.5" width="2" height="2"/><rect class="cls-10" x="136.35" y="533.5" width="2" height="2"/><rect class="cls-10" x="94.85" y="554.3" width="2" height="2"/><rect class="cls-10" x="74.05" y="554.3" width="2" height="2"/><rect class="cls-10" x="115.55" y="554.3" width="2" height="2"/><rect class="cls-10" x="136.35" y="554.3" width="2" height="2"/><polygon class="cls-5" points="75.55 571 74.55 571 74.55 575.5 70.05 575.5 70.05 576.5 74.55 576.5 74.55 581 75.55 581 75.55 576.5 80.05 576.5 80.05 575.5 75.55 575.5 75.55 571"/><rect class="cls-5" x="94.85" y="575" width="2" height="2"/><rect class="cls-5" x="115.55" y="575" width="2" height="2"/><rect class="cls-5" x="136.35" y="575" width="2" height="2"/><line class="cls-11" x1="157.55" x2="158.55"/><rect class="cls-10" x="177.85" y="14.8" width="2" height="2"/><rect class="cls-10" x="157.05" y="14.8" width="2" height="2"/><rect class="cls-10" x="198.55" y="14.8" width="2" height="2"/><rect class="cls-10" x="219.35" y="14.8" width="2" height="2"/><rect class="cls-10" x="177.85" y="35.5" width="2" height="2"/><rect class="cls-10" x="157.05" y="35.5" width="2" height="2"/><rect class="cls-10" x="198.55" y="35.5" width="2" height="2"/><rect class="cls-10" x="219.35" y="35.5" width="2" height="2"/><rect class="cls-10" x="177.85" y="56.3" width="2" height="2"/><rect class="cls-10" x="157.05" y="56.3" width="2" height="2"/><rect class="cls-10" x="198.55" y="56.3" width="2" height="2"/><rect class="cls-10" x="219.35" y="56.3" width="2" height="2"/><polygon class="cls-10" points="158.55 73 157.55 73 157.55 77.5 153.05 77.5 153.05 78.5 157.55 78.5 157.55 83 158.55 83 158.55 78.5 163.05 78.5 163.05 77.5 158.55 77.5 158.55 73"/><rect class="cls-10" x="177.85" y="77" width="2" height="2"/><rect class="cls-10" x="198.55" y="77" width="2" height="2"/><rect class="cls-10" x="219.35" y="77" width="2" height="2"/><rect class="cls-10" x="177.85" y="97.8" width="2" height="2"/><rect class="cls-10" x="157.05" y="97.8" width="2" height="2"/><rect class="cls-10" x="198.55" y="97.8" width="2" height="2"/><rect class="cls-10" x="219.35" y="97.8" width="2" height="2"/><rect class="cls-10" x="177.85" y="118.5" width="2" height="2"/><rect class="cls-10" x="157.05" y="118.5" width="2" height="2"/><rect class="cls-10" x="198.55" y="118.5" width="2" height="2"/><rect class="cls-10" x="219.35" y="118.5" width="2" height="2"/><rect class="cls-10" x="177.85" y="139.3" width="2" height="2"/><rect class="cls-10" x="157.05" y="139.3" width="2" height="2"/><rect class="cls-10" x="198.55" y="139.3" width="2" height="2"/><rect class="cls-10" x="219.35" y="139.3" width="2" height="2"/><polygon class="cls-10" points="158.55 156 157.55 156 157.55 160.5 153.05 160.5 153.05 161.5 157.55 161.5 157.55 166 158.55 166 158.55 161.5 163.05 161.5 163.05 160.5 158.55 160.5 158.55 156"/><rect class="cls-10" x="177.85" y="160" width="2" height="2"/><rect class="cls-10" x="198.55" y="160" width="2" height="2"/><rect class="cls-10" x="219.35" y="160" width="2" height="2"/><rect class="cls-10" x="177.85" y="180.8" width="2" height="2"/><rect class="cls-10" x="157.05" y="180.8" width="2" height="2"/><rect class="cls-10" x="198.55" y="180.8" width="2" height="2"/><rect class="cls-10" x="219.35" y="180.8" width="2" height="2"/><rect class="cls-10" x="177.85" y="201.5" width="2" height="2"/><rect class="cls-10" x="157.05" y="201.5" width="2" height="2"/><rect class="cls-10" x="198.55" y="201.5" width="2" height="2"/><rect class="cls-10" x="219.35" y="201.5" width="2" height="2"/><rect class="cls-10" x="177.85" y="222.3" width="2" height="2"/><rect class="cls-10" x="157.05" y="222.3" width="2" height="2"/><rect class="cls-10" x="198.55" y="222.3" width="2" height="2"/><rect class="cls-10" x="219.35" y="222.3" width="2" height="2"/><polygon class="cls-10" points="158.55 239 157.55 239 157.55 243.5 153.05 243.5 153.05 244.5 157.55 244.5 157.55 249 158.55 249 158.55 244.5 163.05 244.5 163.05 243.5 158.55 243.5 158.55 239"/><rect class="cls-10" x="177.85" y="243" width="2" height="2"/><rect class="cls-10" x="198.55" y="243" width="2" height="2"/><rect class="cls-10" x="219.35" y="243" width="2" height="2"/><rect class="cls-10" x="177.85" y="263.8" width="2" height="2"/><rect class="cls-10" x="157.05" y="263.8" width="2" height="2"/><rect class="cls-10" x="198.55" y="263.8" width="2" height="2"/><rect class="cls-10" x="219.35" y="263.8" width="2" height="2"/><rect class="cls-10" x="177.85" y="284.5" width="2" height="2"/><rect class="cls-10" x="157.05" y="284.5" width="2" height="2"/><rect class="cls-10" x="198.55" y="284.5" width="2" height="2"/><rect class="cls-10" x="219.35" y="284.5" width="2" height="2"/><rect class="cls-10" x="177.85" y="305.3" width="2" height="2"/><rect class="cls-10" x="157.05" y="305.3" width="2" height="2"/><rect class="cls-10" x="198.55" y="305.3" width="2" height="2"/><rect class="cls-10" x="219.35" y="305.3" width="2" height="2"/><polygon class="cls-10" points="158.55 322 157.55 322 157.55 326.5 153.05 326.5 153.05 327.5 157.55 327.5 157.55 332 158.55 332 158.55 327.5 163.05 327.5 163.05 326.5 158.55 326.5 158.55 322"/><rect class="cls-10" x="177.85" y="326" width="2" height="2"/><rect class="cls-10" x="198.55" y="326" width="2" height="2"/><rect class="cls-10" x="219.35" y="326" width="2" height="2"/><rect class="cls-10" x="177.85" y="346.8" width="2" height="2"/><rect class="cls-10" x="157.05" y="346.8" width="2" height="2"/><rect class="cls-10" x="198.55" y="346.8" width="2" height="2"/><rect class="cls-10" x="219.35" y="346.8" width="2" height="2"/><rect class="cls-10" x="177.85" y="367.5" width="2" height="2"/><rect class="cls-10" x="157.05" y="367.5" width="2" height="2"/><rect class="cls-10" x="198.55" y="367.5" width="2" height="2"/><rect class="cls-10" x="219.35" y="367.5" width="2" height="2"/><rect class="cls-10" x="177.85" y="388.3" width="2" height="2"/><rect class="cls-10" x="157.05" y="388.3" width="2" height="2"/><rect class="cls-10" x="198.55" y="388.3" width="2" height="2"/><rect class="cls-10" x="219.35" y="388.3" width="2" height="2"/><polygon class="cls-10" points="158.55 405 157.55 405 157.55 409.5 153.05 409.5 153.05 410.5 157.55 410.5 157.55 415 158.55 415 158.55 410.5 163.05 410.5 163.05 409.5 158.55 409.5 158.55 405"/><rect class="cls-10" x="177.85" y="409" width="2" height="2"/><rect class="cls-10" x="198.55" y="409" width="2" height="2"/><rect class="cls-10" x="219.35" y="409" width="2" height="2"/><rect class="cls-10" x="177.85" y="429.8" width="2" height="2"/><rect class="cls-10" x="157.05" y="429.8" width="2" height="2"/><rect class="cls-10" x="198.55" y="429.8" width="2" height="2"/><rect class="cls-10" x="219.35" y="429.8" width="2" height="2"/><rect class="cls-10" x="177.85" y="450.5" width="2" height="2"/><rect class="cls-10" x="157.05" y="450.5" width="2" height="2"/><rect class="cls-10" x="198.55" y="450.5" width="2" height="2"/><rect class="cls-10" x="219.35" y="450.5" width="2" height="2"/><rect class="cls-10" x="177.85" y="471.3" width="2" height="2"/><rect class="cls-10" x="157.05" y="471.3" width="2" height="2"/><rect class="cls-10" x="198.55" y="471.3" width="2" height="2"/><rect class="cls-10" x="219.35" y="471.3" width="2" height="2"/><polygon class="cls-10" points="158.55 488 157.55 488 157.55 492.5 153.05 492.5 153.05 493.5 157.55 493.5 157.55 498 158.55 498 158.55 493.5 163.05 493.5 163.05 492.5 158.55 492.5 158.55 488"/><rect class="cls-10" x="177.85" y="492" width="2" height="2"/><rect class="cls-10" x="198.55" y="492" width="2" height="2"/><rect class="cls-10" x="219.35" y="492" width="2" height="2"/><rect class="cls-10" x="177.85" y="512.8" width="2" height="2"/><rect class="cls-10" x="157.05" y="512.8" width="2" height="2"/><rect class="cls-10" x="198.55" y="512.8" width="2" height="2"/><rect class="cls-10" x="219.35" y="512.8" width="2" height="2"/><rect class="cls-10" x="177.85" y="533.5" width="2" height="2"/><rect class="cls-10" x="157.05" y="533.5" width="2" height="2"/><rect class="cls-10" x="198.55" y="533.5" width="2" height="2"/><rect class="cls-10" x="219.35" y="533.5" width="2" height="2"/><rect class="cls-10" x="177.85" y="554.3" width="2" height="2"/><rect class="cls-10" x="157.05" y="554.3" width="2" height="2"/><rect class="cls-10" x="198.55" y="554.3" width="2" height="2"/><rect class="cls-10" x="219.35" y="554.3" width="2" height="2"/><polygon class="cls-5" points="158.55 571 157.55 571 157.55 575.5 153.05 575.5 153.05 576.5 157.55 576.5 157.55 581 158.55 581 158.55 576.5 163.05 576.5 163.05 575.5 158.55 575.5 158.55 571"/><rect class="cls-5" x="177.85" y="575" width="2" height="2"/><rect class="cls-5" x="198.55" y="575" width="2" height="2"/><rect class="cls-5" x="219.35" y="575" width="2" height="2"/><line class="cls-11" x1="240.55" x2="241.55"/><rect class="cls-10" x="260.85" y="14.8" width="2" height="2"/><rect class="cls-10" x="240.05" y="14.8" width="2" height="2"/><rect class="cls-10" x="281.55" y="14.8" width="2" height="2"/><rect class="cls-10" x="302.35" y="14.8" width="2" height="2"/><rect class="cls-10" x="260.85" y="35.5" width="2" height="2"/><rect class="cls-10" x="240.05" y="35.5" width="2" height="2"/><rect class="cls-10" x="281.55" y="35.5" width="2" height="2"/><rect class="cls-10" x="302.35" y="35.5" width="2" height="2"/><rect class="cls-10" x="260.85" y="56.3" width="2" height="2"/><rect class="cls-10" x="240.05" y="56.3" width="2" height="2"/><rect class="cls-10" x="281.55" y="56.3" width="2" height="2"/><rect class="cls-10" x="302.35" y="56.3" width="2" height="2"/><polygon class="cls-10" points="241.55 73 240.55 73 240.55 77.5 236.05 77.5 236.05 78.5 240.55 78.5 240.55 83 241.55 83 241.55 78.5 246.05 78.5 246.05 77.5 241.55 77.5 241.55 73"/><rect class="cls-10" x="260.85" y="77" width="2" height="2"/><rect class="cls-10" x="281.55" y="77" width="2" height="2"/><rect class="cls-10" x="302.35" y="77" width="2" height="2"/><rect class="cls-10" x="260.85" y="97.8" width="2" height="2"/><rect class="cls-10" x="240.05" y="97.8" width="2" height="2"/><rect class="cls-10" x="281.55" y="97.8" width="2" height="2"/><rect class="cls-10" x="302.35" y="97.8" width="2" height="2"/><rect class="cls-10" x="260.85" y="118.5" width="2" height="2"/><rect class="cls-10" x="240.05" y="118.5" width="2" height="2"/><rect class="cls-10" x="281.55" y="118.5" width="2" height="2"/><rect class="cls-10" x="302.35" y="118.5" width="2" height="2"/><rect class="cls-10" x="260.85" y="139.3" width="2" height="2"/><rect class="cls-10" x="240.05" y="139.3" width="2" height="2"/><rect class="cls-10" x="281.55" y="139.3" width="2" height="2"/><rect class="cls-10" x="302.35" y="139.3" width="2" height="2"/><polygon class="cls-10" points="241.55 156 240.55 156 240.55 160.5 236.05 160.5 236.05 161.5 240.55 161.5 240.55 166 241.55 166 241.55 161.5 246.05 161.5 246.05 160.5 241.55 160.5 241.55 156"/><rect class="cls-10" x="260.85" y="160" width="2" height="2"/><rect class="cls-10" x="281.55" y="160" width="2" height="2"/><rect class="cls-10" x="302.35" y="160" width="2" height="2"/><rect class="cls-10" x="260.85" y="180.8" width="2" height="2"/><rect class="cls-10" x="240.05" y="180.8" width="2" height="2"/><rect class="cls-10" x="281.55" y="180.8" width="2" height="2"/><rect class="cls-10" x="302.35" y="180.8" width="2" height="2"/><rect class="cls-10" x="260.85" y="201.5" width="2" height="2"/><rect class="cls-10" x="240.05" y="201.5" width="2" height="2"/><rect class="cls-10" x="281.55" y="201.5" width="2" height="2"/><rect class="cls-10" x="302.35" y="201.5" width="2" height="2"/><rect class="cls-10" x="260.85" y="222.3" width="2" height="2"/><rect class="cls-10" x="240.05" y="222.3" width="2" height="2"/><rect class="cls-10" x="281.55" y="222.3" width="2" height="2"/><rect class="cls-10" x="302.35" y="222.3" width="2" height="2"/><polygon class="cls-10" points="241.55 239 240.55 239 240.55 243.5 236.05 243.5 236.05 244.5 240.55 244.5 240.55 249 241.55 249 241.55 244.5 246.05 244.5 246.05 243.5 241.55 243.5 241.55 239"/><rect class="cls-10" x="260.85" y="243" width="2" height="2"/><rect class="cls-10" x="281.55" y="243" width="2" height="2"/><rect class="cls-10" x="302.35" y="243" width="2" height="2"/><rect class="cls-10" x="260.85" y="263.8" width="2" height="2"/><rect class="cls-10" x="240.05" y="263.8" width="2" height="2"/><rect class="cls-10" x="281.55" y="263.8" width="2" height="2"/><rect class="cls-10" x="302.35" y="263.8" width="2" height="2"/><rect class="cls-10" x="260.85" y="284.5" width="2" height="2"/><rect class="cls-10" x="240.05" y="284.5" width="2" height="2"/><rect class="cls-10" x="281.55" y="284.5" width="2" height="2"/><rect class="cls-10" x="302.35" y="284.5" width="2" height="2"/><rect class="cls-10" x="260.85" y="305.3" width="2" height="2"/><rect class="cls-10" x="240.05" y="305.3" width="2" height="2"/><rect class="cls-10" x="281.55" y="305.3" width="2" height="2"/><rect class="cls-10" x="302.35" y="305.3" width="2" height="2"/><polygon class="cls-10" points="241.55 322 240.55 322 240.55 326.5 236.05 326.5 236.05 327.5 240.55 327.5 240.55 332 241.55 332 241.55 327.5 246.05 327.5 246.05 326.5 241.55 326.5 241.55 322"/><rect class="cls-10" x="260.85" y="326" width="2" height="2"/><rect class="cls-10" x="281.55" y="326" width="2" height="2"/><rect class="cls-10" x="302.35" y="326" width="2" height="2"/><rect class="cls-10" x="260.85" y="346.8" width="2" height="2"/><rect class="cls-10" x="240.05" y="346.8" width="2" height="2"/><rect class="cls-10" x="281.55" y="346.8" width="2" height="2"/><rect class="cls-10" x="302.35" y="346.8" width="2" height="2"/><rect class="cls-10" x="260.85" y="367.5" width="2" height="2"/><rect class="cls-10" x="240.05" y="367.5" width="2" height="2"/><rect class="cls-10" x="281.55" y="367.5" width="2" height="2"/><rect class="cls-10" x="302.35" y="367.5" width="2" height="2"/><rect class="cls-10" x="260.85" y="388.3" width="2" height="2"/><rect class="cls-10" x="240.05" y="388.3" width="2" height="2"/><rect class="cls-10" x="281.55" y="388.3" width="2" height="2"/><rect class="cls-10" x="302.35" y="388.3" width="2" height="2"/><polygon class="cls-10" points="241.55 405 240.55 405 240.55 409.5 236.05 409.5 236.05 410.5 240.55 410.5 240.55 415 241.55 415 241.55 410.5 246.05 410.5 246.05 409.5 241.55 409.5 241.55 405"/><rect class="cls-10" x="260.85" y="409" width="2" height="2"/><rect class="cls-10" x="281.55" y="409" width="2" height="2"/><rect class="cls-10" x="302.35" y="409" width="2" height="2"/><rect class="cls-10" x="260.85" y="429.8" width="2" height="2"/><rect class="cls-10" x="240.05" y="429.8" width="2" height="2"/><rect class="cls-10" x="281.55" y="429.8" width="2" height="2"/><rect class="cls-10" x="302.35" y="429.8" width="2" height="2"/><rect class="cls-10" x="260.85" y="450.5" width="2" height="2"/><rect class="cls-10" x="240.05" y="450.5" width="2" height="2"/><rect class="cls-10" x="281.55" y="450.5" width="2" height="2"/><rect class="cls-10" x="302.35" y="450.5" width="2" height="2"/><rect class="cls-10" x="260.85" y="471.3" width="2" height="2"/><rect class="cls-10" x="240.05" y="471.3" width="2" height="2"/><rect class="cls-10" x="281.55" y="471.3" width="2" height="2"/><rect class="cls-10" x="302.35" y="471.3" width="2" height="2"/><polygon class="cls-10" points="241.55 488 240.55 488 240.55 492.5 236.05 492.5 236.05 493.5 240.55 493.5 240.55 498 241.55 498 241.55 493.5 246.05 493.5 246.05 492.5 241.55 492.5 241.55 488"/><rect class="cls-10" x="260.85" y="492" width="2" height="2"/><rect class="cls-10" x="281.55" y="492" width="2" height="2"/><rect class="cls-10" x="302.35" y="492" width="2" height="2"/><rect class="cls-10" x="260.85" y="512.8" width="2" height="2"/><rect class="cls-10" x="240.05" y="512.8" width="2" height="2"/><rect class="cls-10" x="281.55" y="512.8" width="2" height="2"/><rect class="cls-10" x="302.35" y="512.8" width="2" height="2"/><rect class="cls-10" x="260.85" y="533.5" width="2" height="2"/><rect class="cls-10" x="240.05" y="533.5" width="2" height="2"/><rect class="cls-10" x="281.55" y="533.5" width="2" height="2"/><rect class="cls-10" x="302.35" y="533.5" width="2" height="2"/><rect class="cls-10" x="260.85" y="554.3" width="2" height="2"/><rect class="cls-10" x="240.05" y="554.3" width="2" height="2"/><rect class="cls-10" x="281.55" y="554.3" width="2" height="2"/><rect class="cls-10" x="302.35" y="554.3" width="2" height="2"/><polygon class="cls-5" points="241.55 571 240.55 571 240.55 575.5 236.05 575.5 236.05 576.5 240.55 576.5 240.55 581 241.55 581 241.55 576.5 246.05 576.5 246.05 575.5 241.55 575.5 241.55 571"/><rect class="cls-5" x="260.85" y="575" width="2" height="2"/><rect class="cls-5" x="281.55" y="575" width="2" height="2"/><rect class="cls-5" x="302.35" y="575" width="2" height="2"/><line class="cls-11" x1="323.55" x2="324.55"/><rect class="cls-10" x="323.05" y="35.5" width="2" height="2"/><rect class="cls-10" x="323.05" y="56.3" width="2" height="2"/><polygon class="cls-10" points="324.55 73 323.55 73 323.55 77.5 319.05 77.5 319.05 78.5 323.55 78.5 323.55 83 324.55 83 324.55 78.5 329.05 78.5 329.05 77.5 324.55 77.5 324.55 73"/><rect class="cls-10" x="323.05" y="97.8" width="2" height="2"/><rect class="cls-10" x="323.05" y="118.5" width="2" height="2"/><rect class="cls-10" x="323.05" y="139.3" width="2" height="2"/><polygon class="cls-10" points="324.55 156 323.55 156 323.55 160.5 319.05 160.5 319.05 161.5 323.55 161.5 323.55 166 324.55 166 324.55 161.5 329.05 161.5 329.05 160.5 324.55 160.5 324.55 156"/><rect class="cls-10" x="323.05" y="180.8" width="2" height="2"/><rect class="cls-10" x="323.05" y="201.5" width="2" height="2"/><rect class="cls-10" x="323.05" y="222.3" width="2" height="2"/><polygon class="cls-10" points="324.55 239 323.55 239 323.55 243.5 319.05 243.5 319.05 244.5 323.55 244.5 323.55 249 324.55 249 324.55 244.5 329.05 244.5 329.05 243.5 324.55 243.5 324.55 239"/><rect class="cls-10" x="323.05" y="263.8" width="2" height="2"/><rect class="cls-10" x="323.05" y="284.5" width="2" height="2"/><rect class="cls-10" x="323.05" y="305.3" width="2" height="2"/><polygon class="cls-10" points="324.55 322 323.55 322 323.55 326.5 319.05 326.5 319.05 327.5 323.55 327.5 323.55 332 324.55 332 324.55 327.5 329.05 327.5 329.05 326.5 324.55 326.5 324.55 322"/><rect class="cls-10" x="323.05" y="346.8" width="2" height="2"/><rect class="cls-10" x="323.05" y="367.5" width="2" height="2"/><rect class="cls-10" x="323.05" y="388.3" width="2" height="2"/><polygon class="cls-10" points="324.55 405 323.55 405 323.55 409.5 319.05 409.5 319.05 410.5 323.55 410.5 323.55 415 324.55 415 324.55 410.5 329.05 410.5 329.05 409.5 324.55 409.5 324.55 405"/><rect class="cls-10" x="323.05" y="429.8" width="2" height="2"/><rect class="cls-10" x="323.05" y="450.5" width="2" height="2"/><rect class="cls-10" x="323.05" y="471.3" width="2" height="2"/><polygon class="cls-10" points="324.55 488 323.55 488 323.55 492.5 319.05 492.5 319.05 493.5 323.55 493.5 323.55 498 324.55 498 324.55 493.5 329.05 493.5 329.05 492.5 324.55 492.5 324.55 488"/><rect class="cls-10" x="323.05" y="512.8" width="2" height="2"/><rect class="cls-10" x="323.05" y="533.5" width="2" height="2"/><rect class="cls-10" x="323.05" y="554.3" width="2" height="2"/></g></svg>